<svg id="Layer_1" data-name="Layer 1" xmlns="http://www.w3.org/2000/svg" viewBox="0 0 1024 1024"><defs><style>.cls-1{fill:#00b18f;}</style></defs><path class="cls-1" d="M790.52,570q.08,19.88.15,39.76c-.88,2.87-2.16,5.68-2.57,8.62C769.91,746.26,687.84,837.28,562,868c-22,5.37-44.63,8.06-67,12l-45.88.17c-23.64-5.17-47.88-8.48-70.83-15.83-131.31-42-223.47-124.43-262-259.9-7.16-25.22-9.59-51.8-14.19-77.75q-.07-21.4-.16-42.82c2-13.47,3.59-27,6-40.42,22.33-121.14,89.76-203,209.27-238.88,17.25-5.18,35.14-8.25,52.73-12.28q19.88-.09,39.76-.15c24.51,6.07,50,9.71,73.34,18.74,44.08,17,76.67,46.87,84.87,95.9,6.42,38.33-5.79,73.23-24.22,106.55C533,432.89,521.49,452.44,514,473.31c-13.91,38.87-.7,73.8,33.47,97C575.16,589.15,606,594.55,638,587.8c31.18-6.58,54.58-22.89,62.18-57.34,1.94-8.84,11.63-18.3,20.21-22.91,22.38-12,46-3.23,57.16,20.78C783.61,541.38,786.3,556,790.52,570ZM296,752.31c35.5.11,65-29,65.52-64.79.54-35.07-29.6-65.38-65-65.35-35.73,0-65.34,29.37-65.35,64.81C231.22,722.74,260.44,752.2,296,752.31Zm409.34-66c.19-35.64-28.84-65.17-64.59-65.73-34.82-.54-65.41,29.89-65.42,65.07,0,35.76,29.06,65.13,64.73,65.39S705.19,722.05,705.38,686.28Zm-431-171.46c-.49-35.75-30.68-65.56-65.51-64.7a65.65,65.65,0,0,0-64,66.14c.3,35.54,30.16,65.06,65.49,64.77C245.47,580.74,274.88,550.31,274.4,514.82Zm194,193c-35.59.08-65.08,29.58-65.08,65.14,0,35.21,29.81,64.36,65.82,64.36,35.68,0,65.09-29.46,65-65.1C533.93,736.92,504.22,707.79,468.35,707.87ZM296.27,278.24c-35.92-.48-65.82,28.19-66.33,63.58a65.11,65.11,0,0,0,63.76,66.06c35.68.78,65.91-28.11,66.37-63.45C360.56,308.57,331.78,278.71,296.27,278.24Z"/><path class="cls-1" d="M573.69,556.5C545,484.42,554.25,406.17,612.6,368.82c24.71-15.82,50.19-19.3,75.92-3.35,24.07,14.93,37.31,47.4,32.17,75.57-4,22.17-17.72,36.4-38.11,43.72-41.43,14.86-77.79,36.89-106.15,71.09C576,556.43,574.63,556.28,573.69,556.5Z"/><path class="cls-1" d="M886.05,144.88c26.5-5.06,40.16,7.86,34.8,33.18-15.06,71.26-78,113.56-129,158.88-6.58,5.85-12.26,4.68-18.35-1.45-12.54-12.64-26-24.43-38.18-37.35-2.88-3-5.07-10.61-3.32-13.64,35.23-60.92,81.89-109.85,147.86-137.9A39.65,39.65,0,0,1,886.05,144.88Z"/><path class="cls-1" d="M685.67,346.27l32.71-44.62c-.56.76,32.77,31.25,35.67,34,3.42,3.27,19.12,14.3,19.32,18.79.55,12.36-42.9,33.91-52.11,25.74C709.15,369.47,697.74,357.91,685.67,346.27Z"/></svg>