<svg xmlns="http://www.w3.org/2000/svg" width="100" height="100" viewBox="0 0 100 100">
  <path d="M82.74972,54.73628l-10.25851,9.7375L75.64778,65.526C71.17561,72.89421,63.02145,76.05224,53.81512,76.5776V39.47444h8.67952a3.24114,3.24114,0,0,0,2.63121,1.31561,4.0462,4.0462,0,0,0,3.94536-3.94682A3.87458,3.87458,0,0,0,65.12585,32.895a3.05316,3.05316,0,0,0-2.63121,1.05218H53.81512V29.47357a10.85947,10.85947,0,0,0,7.10194-10.26286A11.04821,11.04821,0,1,0,46.71174,29.737v4.2102H37.50541A3.95608,3.95608,0,0,0,34.61222,32.895a3.87458,3.87458,0,0,0-3.94536,3.94822,4.0462,4.0462,0,0,0,3.94536,3.94682,4.2247,4.2247,0,0,0,2.89319-1.31561h9.20633V76.5776c-9.46831-.78879-17.8873-4.47218-22.35948-12.36725l3.158-.7902L18.04053,53.1573,13.83028,66.57817l3.42-.78879c5.261,11.57846,17.36194,20.7891,31.04044,21.84131l2.1044,4.2102,2.1044-4.2102C65.38778,86.84045,76.96194,78.158,82.48633,67.6318l3.68339.78879ZM44.082,19.21071a5.78706,5.78706,0,1,1,5.78633,5.78923A5.83872,5.83872,0,0,1,44.082,19.21071" fill-rule="evenodd"/>
</svg>
