<svg xmlns="http://www.w3.org/2000/svg" width="100" height="100" viewBox="0 0 100 100">
  <path d="M50.00005,9.01238A40.98762,40.98762,0,1,0,90.98934,50,41.03555,41.03555,0,0,0,50.00005,9.01238m0,80.18671A39.19909,39.19909,0,1,1,89.19906,50a39.24437,39.24437,0,0,1-39.199,39.19906"/>
  <path d="M58.7523,15.12143a1.74739,1.74739,0,0,1,.28288.416c.85891,1.78853-1.56116,3.28735-3.43224,3.93745-1.87272.65173-4.03838,2.75182-2.671,4.19a14.87222,14.87222,0,0,1,6.61861-1.74141c-.24762,1.84075,2.14212,2.86469,3.998,2.78384s3.98123-.53219,5.3656.709c1.77836,1.59319-.05222,5.20556-2.38811,4.71716a16.49566,16.49566,0,0,1-11.69773,6.81894c1.43648,1.16707.66515,3.70668-.94309,4.62285-1.61.91785-3.58889.72923-5.43632.57767-1.84579-.15156-3.875-.18528-5.33857.95152a1.89071,1.89071,0,0,0-.7814,1.14852c-.17012,1.1166,1.15185,1.85925,2.27349,2.00239,1.11989.14318,2.415.10947,3.15769.95994.56246.6467.59957,1.60835,1.07106,2.32577,2.01426,3.06338,7.22815-1.83233,10.305.16333a9.001,9.001,0,0,1,2.04952,2.67941c1.94683,2.76868,5.67037,3.61577,9.05378,3.64943,2.5059.027,5.99365.59787,5.92632,3.10043a4.12241,4.12241,0,0,1-.5305,1.67573A35.67453,35.67453,0,0,1,61.94021,75.62106a10.99,10.99,0,0,0-3.47253,2.63223c-.86908,1.17889-1.06438,3.00782.00164,4.01155-1.53587,1.0997-3.84812-.14149-4.52015-1.90807-.66855-1.76495-.20548-3.73871.2914-5.5626.49514-1.8222,1.01381-3.76733.43953-5.56764-.72754-2.282-2.98757-3.68145-4.33658-5.66194-1.35065-1.98049-.98349-5.59626,1.40791-5.73605-3.79262-3.26886-7.76707-6.63706-12.61225-7.89674-1.12154-.29136-2.39479-.54227-3.03475-1.509-1.26133-1.90134.33859-5.72428-1.92155-6.03075a2.4584,2.4584,0,0,1-2.85456,3.16442,7.61152,7.61152,0,0,0-1.24786-6.27832c-.83362-1.12333-2.05969-2.32406-1.66221-3.66459a5.69839,5.69839,0,0,1,1.31355-1.7835c2.51947-3.09874,1.33893-9.93787,2.43528-14.96828a35.40295,35.40295,0,1,0,26.58522-3.7404"/>
</svg>
