<svg xmlns="http://www.w3.org/2000/svg" width="100" height="100" viewBox="0 0 100 100">
  <g>
    <path d="M54.13367,62.77272a8.64126,8.64126,0,1,0-7.2408-1.60139l-44.244-9.77781V70.51684a4.20237,4.20237,0,0,0,4.19949,4.20237l44.25492.03027a6.133,6.133,0,0,0,5.17727-2.84385,6.13717,6.13717,0,0,0,10.35739,0,6.13544,6.13544,0,0,0,10.35549,0,6.13545,6.13545,0,0,0,10.3555,0,6.13629,6.13629,0,0,0,10.00226.5ZM47.67794,54.352a4.51816,4.51816,0,1,1,4.51816,4.5191A4.5177,4.5177,0,0,1,47.67794,54.352Z"/>
    <path d="M90.707,59.62772l-28.99726-6.307a9.53028,9.53028,0,0,1,.05492,1.03129,9.63582,9.63582,0,0,1-.31535,2.448L89.974,63.00378l.733-3.37606"/>
    <path d="M6.94919,41.40925l-.73488,3.37607,36.55057,7.95105a9.4732,9.4732,0,0,1,1.20838-3.2738L6.94919,41.40925"/>
    <path d="M34.51269,32.748,44.48748,27.1,43.441,25.25052,31.39231,32.07369,11.52985,27.77618c.13447,12.35935,13.688,15.94566,13.688,15.94566L45.0841,47.954a9.57077,9.57077,0,0,1,16.21934,3.45656L86.3517,56.746l6.24549-11.42939L34.51269,32.748"/>
  </g>
</svg>
