<svg xmlns="http://www.w3.org/2000/svg" width="100" height="100" viewBox="0 0 100 100">
  <g>
    <path d="M45.53792,12.63248A1.5597,1.5597,0,0,0,43.97675,11.073H43.5254a2.02623,2.02623,0,0,0-2.10512,1.94683c-.00175.0219-.00175.04379-.00175.06568V31.09025a2.73113,2.73113,0,0,1-4.963,1.55947,3.12334,3.12334,0,0,1-.49689-1.701V13.10069a2.02932,2.02932,0,0,0-4.05863,0V30.96562a3.11136,3.11136,0,0,1-.49853,1.701,2.73063,2.73063,0,0,1-4.96133-1.56117V13.08552a2.029,2.029,0,0,0-2.02762-2.02931h-.4531A1.55962,1.55962,0,0,0,22.4,12.61737V41.21505a5.11537,5.11537,0,0,0,4.97645,5.118h3.29244L27.4692,83.2788a6.14748,6.14748,0,0,0,6.53761,5.6788,6.14757,6.14757,0,0,0,6.5377-5.6788L37.31436,46.333h3.29245a5.11879,5.11879,0,0,0,4.94622-5.118V12.63248Z"/>
    <path d="M75.35339,53.50963a6.14717,6.14717,0,0,0,1.45-4.00981V16.82993a5.56941,5.56941,0,0,0-5.2881-5.8354c-11.28174,1.23275-18.36506,38.0691-4.51,42.53026l-2.511,28.97327a6.52262,6.52262,0,0,0,6.53771,6.50739h.03032A6.52375,6.52375,0,0,0,77.6,82.49806Z"/>
  </g>
</svg>
