<svg xmlns="http://www.w3.org/2000/svg" width="100" height="100" viewBox="0 0 100 100">
  <path d="M73.56786,16.42833H22.26343a4.80644,4.80644,0,0,0-4.78959,4.78284V34.87765a4.78589,4.78589,0,0,0,5.01694,5.01188h2.05293c0,3.87174-.229,7.74517-.229,11.61523a4.14716,4.14716,0,0,0-3.64776,4.10079A7.71423,7.71423,0,0,0,21.80705,59.932a3.96466,3.96466,0,0,0-1.14014,3.41872,6.74664,6.74664,0,0,0,.45469,2.2769,3.88975,3.88975,0,0,0,3.19307,2.96066c.45638.229.45638.4547.45638.9111V82.0257a13.37487,13.37487,0,0,0,.45639,3.1897,6.56594,6.56594,0,0,0,6.38442,5.69393h33.2896a2.90388,2.90388,0,0,0,1.36918-.22735,7.82348,7.82348,0,0,0,4.7879-5.23755,12.59509,12.59509,0,0,0,.45639-4.10078V61.07213c0-.45638.229-.68374.68375-1.14013,1.36918-1.13845,2.50762-2.50425,2.05291-4.55381a5.01568,5.01568,0,0,0-1.36918-3.417,4.00618,4.00618,0,0,0,1.36918-2.96066c0-.68374-.22734-1.3658-.22734-1.82219a4.72154,4.72154,0,0,0-3.193-3.87343c-.229,0-.229-.22735-.229-.45471a12.03831,12.03831,0,0,1-.22737-2.96064h2.964A5.215,5.215,0,0,0,78.81215,34.652V21.66925a5.15824,5.15824,0,0,0-5.24429-5.24092M40.27656,58.79355h.22735q-.341,2.05123-.68373,4.10078c0,.22735-.22737.22735-.45641.22735-2.28025.45472-4.56053.9111-7.06815,1.3658.22734-.68205.22734-1.59315.45638-2.27689a3.88481,3.88481,0,0,1,.22735-1.59484.79207.79207,0,0,1,.229-.45471c2.28027-.45639,4.7879-.91109,7.06817-1.36749m-6.8408-1.8222a25.10707,25.10707,0,0,1,.45638-4.32645c2.50762-.4547,5.01524-.9111,7.52456-1.59484-.229,1.59484-.229,2.96233-.45638,4.09909a.49081.49081,0,0,1-.45641.4564l-6.84081,1.3658Zm15.96019,0a8.56055,8.56055,0,0,1-.22734,2.50594c0,.45471-.22734.9111-.22734,1.36581a.60577.60577,0,0,1-.68376.68543,35.78164,35.78164,0,0,1-4.78957.9111h-.45641c.229-1.3675.229-2.735.45641-3.87344a.7921.7921,0,0,1,.229-.4547,50.54332,50.54332,0,0,0,5.699-1.14014m-5.47162-2.04786c.229-.9111.229-2.05124.45638-2.96233.22734-1.36749.22734-1.36749,1.36748-1.59316,1.59653-.229,3.19308-.68543,4.7896-.9111,0,.22567-.229.68206-.229.9111,0,.9111-.22737,2.04786-.22737,2.959-.229.45639-.229.68543-.68543.68543-1.82386.22566-3.64776.68206-5.47162.9111m7.98094,5.91961a17.90033,17.90033,0,0,0,.45639-3.188c.22737-1.13844.22737-1.13844,1.36748-1.3658,2.05124-.4547,3.8768-.68374,5.928-1.14014h.45638c-.22734,1.14014-.22734,2.05124-.45638,3.1897-.22734,1.13844-.22734,1.13844-1.36748,1.3658-2.05291.45639-3.87681.68374-5.70067,1.13845ZM60.57,51.50476a.49081.49081,0,0,1-.45641.4564c-2.28025.4547-4.78787.91109-7.06815,1.3658.22735-1.59316.22735-2.959.45639-4.32646,2.50762-.4547,5.01524-.9111,7.52456-1.59484-.229,1.59484-.229,2.96234-.45639,4.0991M24.54371,54.46709q3.07681-.682,6.15538-1.3658l.229.22567c-.229,1.14013-.45641,2.50763-.68545,3.87343a.48919.48919,0,0,1-.45638.4547,40.42137,40.42137,0,0,0-4.55886.9111,1.25193,1.25193,0,0,1-1.36918-.9111,5.66482,5.66482,0,0,1-.22735-1.8205,1.00323,1.00323,0,0,1,.9128-1.3675M25.68215,65.855c-1.13844.229-1.59485-.22736-1.82389-1.3675a1.70131,1.70131,0,0,1-.22735-1.13676,1.40625,1.40625,0,0,1,1.14014-1.82219c1.59653-.229,3.42042-.4564,5.01525-.68543,0,1.14013-.22735,2.27858-.22735,3.41872a1.4575,1.4575,0,0,1-1.14013,1.13676,11.4962,11.4962,0,0,0-2.73667.4564M69.9184,57.65509c-2.28027.4564-4.7879.9111-7.29719,1.3675.229-1.59484.229-2.96234.45639-4.5555a13.46372,13.46372,0,0,0,2.964-.4547q1.71021-.34356,3.42209-.68543a1.25169,1.25169,0,0,1,1.36751.91109c.22734.68544.22734,1.14014.45638,1.8222a1.66432,1.66432,0,0,1-1.36918,1.59484m.9128-10.47678c.22734.45639.22734.91109.45638,1.36749,0,.68206-.45638,1.59316-1.14014,1.59316-2.28027.45471-4.33318.68374-6.61346,1.14014a24.97225,24.97225,0,0,0,.45639-4.10079.79216.79216,0,0,1,.45471-.229,35.77848,35.77848,0,0,1,4.78957-.9111c.91279-.22736,1.36751.229,1.59655,1.14013" fill-rule="evenodd"/>
</svg>
