<svg id="Layer_2" data-name="Layer 2" xmlns="http://www.w3.org/2000/svg" width="100" height="100" viewBox="0 0 100 100">
  <title>drybulk</title>
  <path d="M12.30614,88.59643,14.22348,84.772,8.81,67.53986H96.03242l.12748.00118L86.903,80.94751l7.65126,1.915-1.914,5.73392Zm-2.72759-24.441V44.61436H3.8401V29.31316H15.31348V25.48869l13.37917-3.838.01675,13.402H24.88209v3.82112h3.82732V64.15545Zm23.58567,0V25.80462h4.33856L66.11012,12.33935l.44-.44006a1.69252,1.69252,0,1,1,2.39358,2.39358l-.2573.2573V32.21664A3.16009,3.16009,0,0,1,70.685,34.09277l.03351-.01474,6.52575,2.12221c1.28983,3.10114-.96939,6.9978-5.04546,8.69386l-2.78622-7.01472A3.14437,3.14437,0,0,1,66.087,37.8782l-2.78506,7.0159c-4.07606-1.69606-6.33547-5.59288-5.04546-8.69386l6.5261-2.12154.0335.01474a3.1492,3.1492,0,0,1,2.17581-1.92638l.00118-15.92318L42.23716,40.99861a1.721,1.721,0,0,1-.421.30923V64.15545Zm16.90831,0L64.09076,50.13722a5.18264,5.18264,0,0,1,7.32177,0L85.42892,64.15545ZM11.49237,38.87373V35.05261h-3.83v3.82112Zm5.743,0V35.05261H13.403v3.82112Zm5.7351,0V35.05261H19.147v3.82112Zm18.84508-2.24114L62.57494,15.87385,40.21747,26.39744l1.59907,10.09661Z"/>
</svg>
