<svg xmlns="http://www.w3.org/2000/svg" width="100" height="100" viewBox="0 0 100 100">
  <path d="M92.69782,58.20578h0L81.05228,35.3138H85.7964v-3.023H80.19s-18.97642-8.20662-28.89577-9.50169V16.30874a3.70245,3.70245,0,0,0,2.58845-3.023,2.95149,2.95149,0,0,0-3.01959-3.02295H46.98125a2.95011,2.95011,0,0,0-3.01791,3.02295,4.03461,4.03461,0,0,0,2.15566,3.023v6.48042c-9.48822,1.29507-28.03353,9.06887-28.46466,9.50169H12.048v3.023h4.74411l-9.4899,22.892v.43281a11.66489,11.66489,0,0,0,11.64555,9.93282A11.26435,11.26435,0,0,0,30.16215,58.20578L18.08547,34.881c3.88185-1.2934,19.83869-7.77382,28.03353-9.06888V81.52888H39.65037v3.88858H34.47345v4.31972H63.36923V85.41746H58.194V81.52888H51.29424V25.81212c8.626,1.29506,24.15166,7.34267,28.03352,9.06888L69.83954,58.20578v.43281a11.55541,11.55541,0,0,0,11.21274,9.93282A11.37242,11.37242,0,0,0,92.69782,58.20578M29.2999,57.77464H8.16612L17.22321,35.3138h.43113Zm41.40191,0L79.75889,34.881l.43112.4328L91.83388,57.77464Z" fill-rule="evenodd"/>
</svg>
