<svg xmlns="http://www.w3.org/2000/svg" width="100" height="100" viewBox="0 0 100 100">
  <path d="M50,14.013A35.987,35.987,0,1,0,85.987,50,35.98617,35.98617,0,0,0,50,14.013Zm3.23786,53.15369a1.89962,1.89962,0,0,1-1.89965,1.89965H46.44663A1.89962,1.89962,0,0,1,44.547,67.16669V64.07982a1.89962,1.89962,0,0,1,1.89965-1.89965h4.89153a1.89962,1.89962,0,0,1,1.89965,1.89965ZM61.00262,48.384a13.67684,13.67684,0,0,1-4.89154,4.27418,5.93693,5.93693,0,0,0-2.23217,2.37454,6.69983,6.69983,0,0,0-.52238,2.18458A1.3536,1.3536,0,0,1,52.003,58.42836H45.94789a1.35351,1.35351,0,0,1-1.35682-1.35013q-.00015-.04935.00339-.09837a8.12169,8.12169,0,0,1,1.23471-3.94177,19.1389,19.1389,0,0,1,4.63045-4.15546,8.38162,8.38162,0,0,0,2.707-2.7308,6.8631,6.8631,0,0,0,.99736-3.70422,4.98647,4.98647,0,0,0-1.16357-3.41939,4.22645,4.22645,0,0,0-3.30067-1.2823,4.13148,4.13148,0,0,0-2.89691,1.0686,3.53727,3.53727,0,0,0-1.02111,1.70969,1.99446,1.99446,0,0,1-1.97088,1.40092H38.25432a1.21086,1.21086,0,0,1-1.19082-1.2308c.00041-.02508.00155-.05016.0036-.07514a8.92829,8.92829,0,0,1,3.39554-6.9575,14.72226,14.72226,0,0,1,9.23706-2.707,14.24726,14.24726,0,0,1,9.6882,3.11061A10.59022,10.59022,0,0,1,62.926,42.4475,10.04425,10.04425,0,0,1,61.00262,48.384Z"/>
</svg>
