<svg xmlns="http://www.w3.org/2000/svg" width="100" height="100" viewBox="0 0 100 100">
  <g>
    <path d="M6.8576,53.02324A1.38441,1.38441,0,0,1,5.46912,51.76c-.1089-1.23525-.16933-2.49859-.179-3.75556a46.37572,46.37572,0,0,1,76.416-35.68565,1.38448,1.38448,0,1,1-1.79462,2.10866A43.60684,43.60684,0,0,0,8.05965,47.98311c.00909,1.18259.06557,2.37158.16783,3.53385A1.38381,1.38381,0,0,1,6.9698,53.01764C6.932,53.02131,6.89479,53.023,6.8576,53.02324Z" fill="#029669"/>
    <g>
      <path d="M68.11,61.39665c-7.52264-9.23187-17.14643-15.5904-27.09764-17.90475a39.60834,39.60834,0,0,0-10.211-1.006,30.72721,30.72721,0,0,0-13.71679,4.40968,29.603,29.603,0,0,0-3.02429,2.87782,26.49932,26.49932,0,0,0-4.1996,7.73495,16.59956,16.59956,0,0,0,2.82944,16.15611.81425.81425,0,0,0,.64007.31085.82477.82477,0,0,0,.16169-.01613.74687.74687,0,0,0,.12945-.03762.81724.81724,0,0,0,.52629-.81117,16.08244,16.08244,0,0,1,2.44021-9.87372c6.6-10.142,16.93054-7.75466,26.94715-4.441,8.82383,2.92082,16.81409,3.89413,24.42453,2.97323a.22895.22895,0,0,0,.15049-.37221Z" fill="#029669"/>
      <path d="M78.355,58.86551C69.21634,48.48609,57.26432,41.45705,45.564,39.5803a43.86012,43.86012,0,0,0-11.3899-.32563,22.61143,22.61143,0,0,0-2.69239.456.22926.22926,0,0,0,.05061.45283h.00314A42.03623,42.03623,0,0,1,41.536,41.24115c10.79463,2.511,21.49519,9.781,29.35735,19.94677a.22891.22891,0,0,0,.18141.08913.20593.20593,0,0,0,.04389-.00447,43.56723,43.56723,0,0,0,7.146-2.04158.22883.22883,0,0,0,.09047-.36549Z" fill="#029669"/>
      <path d="M84.70909,53.80861l-.00045-.00045c-.6954-.73019-.62142-.72624-1.37813-1.44658C71.94423,41.52251,53.80361,32.1982,34.49885,36.44941a.22932.22932,0,0,0,.06943.45239A46.09709,46.09709,0,0,1,45.93,37.29955c11.73915,1.88206,23.61018,8.64052,32.93552,18.67879.62169.66922,1.05213,1.17308,1.6504,1.871a.23013.23013,0,0,0,.17424.08018.22389.22389,0,0,0,.0954-.021,10.41206,10.41206,0,0,0,3.74754-2.82823c.16212-.19277.35968-.34489.39327-.59258A.81844.81844,0,0,0,84.70909,53.80861Z" fill="#029669"/>
    </g>
    <g>
      <path d="M99.902,43.96458h.00089l-.002-.02478c-.034-.554-.08675-1.07622-.13818-1.63017l-.00378-.03216a55.75779,55.75779,0,0,0-2.09849-10.52885.68345.68345,0,0,0-1.33667.1339,53.84853,53.84853,0,0,1-1.74631,8.24513,56.55166,56.55166,0,0,1-3.27749,9.565C86.52977,61.00622,75.60039,63.94928,64.04846,64.68928c-.62838.04026-1.26043-.00246-1.89131-.01923-8.30915-.22087-14.46753-1.8128-21.30939-3.8327-.30263-.08935-.60914-.17141-.91215-.27047-6.17637-2.019-11.80472-3.95216-17.30085.0189-3.29007,2.37714-6.94679,9.24008-5.77146,14.60067.97442,4.44429,14.08593,6.50744,18.26639,7.42138,13.85093,3.02809,30.8635,3.47818,43.01605-5.00243.60174-.043-2.01971,1.9528-2.41174,2.20926a38.61879,38.61879,0,0,1-5.32627,2.91461A43.3139,43.3139,0,0,1,57.44934,86.143c-10.253,1.14161-20.61329-.70089-30.5673-3.05592-2.25458-.5334-4.48562-1.15168-6.70775-1.80328-2.39386-.80792-6.94874-2.14129-11.01951-3.27543l-.011-.00313.00014.00011c-3.39994-.94713-6.45738-1.754-7.62357-1.99636q-.36309-.075-.71811-.13185a.69259.69259,0,0,0-.31846,1.34423c.41381.13051.74244.238.92364.30564,1.53564.57433,9.80329,4.16307,15.63455,6.897,5.68487,2.6768,10.0577,6.915,15.63289,9.77227,15.72133,8.05712,34.24668,4.93281,47.79959-5.924A52.68235,52.68235,0,0,0,99.902,43.96458Z" fill="#029669"/>
      <path d="M91.41885,7.194a.69237.69237,0,0,0-.9.38609L85.883,19.1968a.69247.69247,0,0,0,1.28608.51389L91.80494,8.094A.69236.69236,0,0,0,91.41885,7.194Z" fill="#029669"/>
      <path d="M97.52779,11.389,93.88254,7.37187a.69251.69251,0,0,0-1.15964.2184L88.31154,19.14812a.697.697,0,0,0-.0453.2468V47.83407a.6924.6924,0,0,0,1.3848,0V19.52272L93.61477,9.13736l2.70808,2.984V28.01464a.69241.69241,0,0,0,1.38481,0V11.85423A.69229.69229,0,0,0,97.52779,11.389Z" fill="#029669"/>
      <path d="M50.45564,13.34667a.6868.6868,0,0,0-.929.28846l-4.09389,7.77974a.6875.6875,0,0,0-.07928.32026V32.38777a.688.688,0,0,0,1.376,0V21.90489l4.01461-7.62925A.68768.68768,0,0,0,50.45564,13.34667Zm2.24537,0a.68678.68678,0,0,0-.929.28846l-4.0939,7.77974a.68782.68782,0,1,0,1.21742.64051l4.09389-7.77974A.68768.68768,0,0,0,52.701,13.34667ZM89.05474,7.194a.69225.69225,0,0,0-.89929.38677L83.52026,19.19747a.69114.69114,0,0,0-.04936.25626V31.63906H79.09132a.692.692,0,0,0-.69238.69241V36.0031h-8.131V32.90961a.692.692,0,0,0-.69238-.69241H62.366V28.96932a.68816.68816,0,0,0-.688-.688h-2.9047v-6.5462a.69371.69371,0,0,0-.047-.25038L55.689,13.705a.68783.68783,0,0,0-1.24967-.06987L50.3459,21.41487a.6875.6875,0,0,0-.07928.32026V32.74834a.688.688,0,0,0,1.376,0V21.90489l3.31274-6.29538,2.442,6.25507V34.24211a.688.688,0,1,0,1.376,0v-4.5848H60.99v5.81163a.688.688,0,1,0,1.376,0V33.602h6.51711v5.35837a.6924.6924,0,1,0,1.3848,0V37.3879h8.131v7.78831a.6924.6924,0,0,0,1.3848,0V33.02388H83.4709V49.5774a.6924.6924,0,0,0,1.3848,0V19.587L89.44151,8.09334A.69161.69161,0,0,0,89.05474,7.194Z" fill="#029669"/>
    </g>
  </g>
</svg>
