<svg xmlns="http://www.w3.org/2000/svg" width="100" height="100" viewBox="0 0 100 100">
  <path d="M78.62212,25.94514l-8.39187-9.58587s-9.90586,8.74552-20.14522,0c-10.40942,8.74552-20.14516,0-20.14516,0l-8.562,9.58587s6.7162,4.542,2.85456,15.30677C19.69882,53.364,18.52332,70.85672,50.085,83.64073,81.47838,70.85672,80.30118,53.364,75.76925,41.25191c-3.86164-10.76476,2.85287-15.30677,2.85287-15.30677m-19.26775,38.448-9.35352-6.701-9.35182,6.701,3.47936-10.96684-9.26255-6.82563,11.50577-.0775,3.62924-10.918,3.62923,10.918,11.50577.0775L55.8733,53.42628Z" fill-rule="evenodd"/>
</svg>
