<svg xmlns="http://www.w3.org/2000/svg" width="100" height="100" viewBox="0 0 100 100">
  <g>
    <path d="M87.0502,47.47385H81.82949a.44656.44656,0,0,1-.50523-.50523A31.42928,31.42928,0,0,0,53.03139,18.67574a.44656.44656,0,0,1-.50523-.50523V12.9498a2.52616,2.52616,0,0,0-5.05231,0v5.22071a.44656.44656,0,0,1-.50523.50523A31.581,31.581,0,0,0,18.67574,46.96862a.44656.44656,0,0,1-.50523.50523H12.9498a2.52615,2.52615,0,1,0,0,5.0523h5.22071a.44656.44656,0,0,1,.50523.50523A31.42931,31.42931,0,0,0,46.96862,81.32426a.44656.44656,0,0,1,.50523.50523V87.0502a2.52615,2.52615,0,1,0,5.0523,0V81.82949a.44656.44656,0,0,1,.50523-.50523A31.4293,31.4293,0,0,0,81.32426,53.03139a.44656.44656,0,0,1,.50523-.50523H87.0502a2.52616,2.52616,0,0,0,0-5.05231ZM50,74.08263A24.08263,24.08263,0,1,1,74.08263,50,24.07761,24.07761,0,0,1,50,74.08263Z"/>
    <path d="M50,30.96967A19.03033,19.03033,0,1,0,69.03033,50,19.01044,19.01044,0,0,0,50,30.96967Zm0,25.42991A6.39958,6.39958,0,1,1,56.39958,50,6.39674,6.39674,0,0,1,50,56.39958Z"/>
  </g>
</svg>
