<svg xmlns="http://www.w3.org/2000/svg" width="100" height="100" viewBox="0 0 100 100">
  <path d="M83.6075,21.79465H76.29328V17.92242a8.18331,8.18331,0,0,0-8.17471-8.17471H22.082a8.18332,8.18332,0,0,0-8.17472,8.17471V77.29665a10.76481,10.76481,0,0,0,10.7562,10.7562H81.026a9.04383,9.04383,0,0,0,9.03521-9.03521V28.24837A6.46233,6.46233,0,0,0,83.6075,21.79465ZM23.37278,46.02622V24.23846A2.15124,2.15124,0,0,1,25.524,22.08722h20.6519a2.15124,2.15124,0,0,1,2.15124,2.15124V46.02622a2.15124,2.15124,0,0,1-2.15124,2.15124H25.524A2.15124,2.15124,0,0,1,23.37278,46.02622ZM64.89171,71.41086H26.16939a2.15124,2.15124,0,0,1,0-4.30248H64.89171a2.15124,2.15124,0,0,1,0,4.30248Zm0-11.18645H26.16939a2.15124,2.15124,0,0,1,0-4.30248H64.89171a2.15124,2.15124,0,1,1,0,4.30248Zm0-11.75438H55.57254a2.15124,2.15124,0,1,1,0-4.30248h9.31917a2.15124,2.15124,0,0,1,0,4.30248Zm0-11.18645H55.57254a2.15124,2.15124,0,1,1,0-4.30248h9.31917a2.15124,2.15124,0,0,1,0,4.30248Zm0-10.32595H55.57254a2.15124,2.15124,0,1,1,0-4.30248h9.31917a2.15124,2.15124,0,0,1,0,4.30248Zm20.867,52.06a4.73273,4.73273,0,0,1-9.46546,0V26.09713H83.6075a2.15124,2.15124,0,0,1,2.15124,2.15124Z"/>
</svg>
