<svg id="Layer_1" data-name="Layer 1" xmlns="http://www.w3.org/2000/svg" viewBox="0 0 1024 1024"><defs><style>.cls-1{fill:#00b18f;}</style></defs><path class="cls-1" d="M878.18,802.18H776.84V700.85c9.22,2.76,19.35,3.68,29.48,3.68A120.72,120.72,0,0,0,862.52,477c-12.9-53.42-60.8-94-118.84-94a121.64,121.64,0,0,0-70,22.11,240.53,240.53,0,0,1,4.61,44.22c0,77.38-41.46,145.55-102.26,183.32a120.35,120.35,0,0,0,109.63,70.93A116.8,116.8,0,0,0,717,699V801.26H417.58c0-1.85.92-4.61.92-6.45V628.07A183.72,183.72,0,0,0,647,450.28a181.37,181.37,0,0,0-98.57-162.13c-18.43-82-91.2-143.71-178.72-143.71-88.43,0-163,63.56-179.63,147.39-56.19,31.32-93,90.28-93,158.45A183.21,183.21,0,0,0,280.32,633.6c16.58,0,32.24-1.84,47.9-6.45V795.73c0,1.84,0,4.61.92,6.45H145.82a38.69,38.69,0,1,0,0,77.38H878.18a38.69,38.69,0,1,0,0-77.38Z"/></svg>