<svg xmlns="http://www.w3.org/2000/svg" width="100" height="100" viewBox="0 0 100 100">
  <g>
    <path d="M75.73094,26.69229A3.30873,3.30873,0,0,0,72.425,23.38474h-3.0769a3.30836,3.30836,0,0,0-3.31433,3.30755V29.1174h9.69714Z"/>
    <path d="M36.564,44.92537a9.70547,9.70547,0,1,0,9.70536,9.7139,9.72494,9.72494,0,0,0-9.70536-9.7139"/>
    <path d="M80.9513,31.45272H19.04716a4.97153,4.97153,0,0,0-4.96986,4.96473V71.63872a4.97622,4.97622,0,0,0,4.96986,4.97654H80.9513a4.9819,4.9819,0,0,0,4.9714-4.97654V36.41745a4.97721,4.97721,0,0,0-4.9714-4.96473M36.56348,70.52047A15.89115,15.89115,0,1,1,52.458,54.63942,15.9063,15.9063,0,0,1,36.56348,70.52047m41.84317-28.719a1.64676,1.64676,0,0,1-1.637,1.65383H64.76538a1.65532,1.65532,0,0,1-1.65214-1.65383V39.82943a1.65821,1.65821,0,0,1,1.65214-1.6622H76.76962a1.64865,1.64865,0,0,1,1.637,1.6622Z"/>
    <path d="M56.6516,26.69229a3.30915,3.30915,0,0,0-3.32277-3.30755H27.58905a3.31948,3.31948,0,0,0-3.321,3.30755V29.1174H56.6516Z"/>
  </g>
</svg>
