<svg xmlns="http://www.w3.org/2000/svg" width="100" height="100" viewBox="0 0 100 100">
  <path d="M51.72284,72.46594h8.41545V64.05048H51.72284Zm-11.85943,0h8.41545V64.05048H39.86341Zm-11.86112,0h8.41544V64.05048H28.00229Zm35.58-11.44518H71.9994V52.60365H63.58227Zm-11.85943,0h8.41545V52.60365H51.72284Zm-11.85943,0h8.41545V52.60365H39.86341Zm-11.86112,0h8.41544V52.60365H28.00229Zm35.58-11.44513H71.9994V41.15848H63.58227Zm-11.85943,0h8.41545V41.15848H51.72284Zm-11.85943,0h8.41545V41.15848H39.86341Zm-11.86112,0h8.41544V41.15848H28.00229ZM24.18781,14.2634h3.38671v4.77106a3.6085,3.6085,0,0,0-2.49414,3.52316,4.29367,4.29367,0,0,0,4.2574,3.98961c2.45879,0,4.64979-2.1152,4.64979-3.98961a3.65132,3.65132,0,0,0-2.59688-3.56694V14.2634H40.9328v4.64643a3.56616,3.56616,0,0,0-2.61035,3.64779c0,1.91147,2.058,3.92393,4.51844,3.92393a4.18,4.18,0,0,0,4.222-3.85825,3.912,3.912,0,0,0-2.31227-3.68988v-4.67h9.01161v4.97988c-1.24455.69722-2.2668,1.53423-2.2668,3.31434a4.18907,4.18907,0,0,0,4.38709,3.92393c2.72318-.06733,4.35339-1.34726,4.48643-3.5265a3.51364,3.51364,0,0,0-2.78887-3.88183V14.2634H68.60594v4.52016c-1.70262.49847-2.43352,1.79357-2.43352,3.77406a4.34309,4.34309,0,0,0,4.45276,3.92393,4.18047,4.18047,0,0,0,4.25572-3.92393c0-1.9384-.87068-3.53323-2.4571-3.61746V14.2634h3.38841a8.03955,8.03955,0,0,1,8.0163,8.01463V62.45056H77.466V35.04688H22.7479V78.31311H65.02217l-.005-12.93557,18.80633-.01516c-1.96027,10.66875-6.509,16.81576-18.00975,20.37422H24.18781a8.042,8.042,0,0,1-8.01632-8.01628V22.278a8.04065,8.04065,0,0,1,8.01632-8.01463"/>
</svg>
