<svg id="Layer_2" data-name="Layer 2" xmlns="http://www.w3.org/2000/svg" width="100" height="100" viewBox="0 0 100 100">
  <title>refrigerated-avocados</title>
  <path d="M60.72146,51.13514c-6.932,0-12.55468,6.3219-12.55468,14.12125s5.62271,14.12125,12.55468,14.12125c6.92846,0,12.55116-6.32022,12.55116-14.12125S67.64991,51.13514,60.72146,51.13514m-6.29158,11.4362A1.98584,1.98584,0,0,1,52.4854,64.1292a1.23473,1.23473,0,0,1-1.20407-1.49085,10.034,10.034,0,0,1,9.43661-8.36621,8.63034,8.63034,0,0,1,1.56808.17655,10.2606,10.2606,0,0,0-7.8563,8.12433M36.77078,49.79873a25.44758,25.44758,0,0,0,4.43287-14.36716A20.43326,20.43326,0,0,1,46.52483,21.6817c-.2248-.63319-.5084-1.2416-.68863-1.88735l-.08561-.29784a15.78856,15.78856,0,1,0-30.388,8.584l.00887.02312a30.163,30.163,0,0,1-.42631,17.79931A25.25794,25.25794,0,0,0,34.13783,78.67408a29.8697,29.8697,0,0,1,2.633-28.87519m45.1014,2.76781A30.59567,30.59567,0,0,1,76.4349,35.71282v-.305c0-8.71765-6.29526-15.79068-15.01458-15.79068s-15.01476,7.073-15.01476,15.79068v.025a30.6477,30.6477,0,0,1-5.7289,17.01267,25.11924,25.11924,0,1,0,41.19619.12128M61.13673,85.65347A19.01579,19.01579,0,0,1,45.38357,55.97372a36.36481,36.36481,0,0,0,6.338-20.56593,9.62456,9.62456,0,0,1,19.24711,0v.305a36.28312,36.28312,0,0,0,6.09358,20.3527A18.823,18.823,0,0,1,80.209,66.626,19.08764,19.08764,0,0,1,61.13606,85.6543"/>
</svg>
