<svg id="Layer_2" data-name="Layer 2" xmlns="http://www.w3.org/2000/svg" width="100" height="100" viewBox="0 0 100 100">
  <title>refrigerated-bananas</title>
  <path d="M91.0806,42.94161a29.07356,29.07356,0,0,1-1.56356-9.9229,29.1543,29.1543,0,0,1,.89988-4.85416c.21274-.86537.42732-1.73442.59081-2.60883a8.01193,8.01193,0,0,0-.429-5.7232,2.764,2.764,0,0,0-1.91265-1.12,2.17,2.17,0,0,0-1.99088.42c-2.05805,1.79623-1.83074,7.99032-1.67981,12.08632a24.51946,24.51946,0,0,1-.07639,4.85968,15.98276,15.98276,0,0,1-2.53261,5.38316A48.98049,48.98049,0,0,1,68.43668,55.6715,36.97952,36.97952,0,0,1,46.195,61.49288a80.24665,80.24665,0,0,1-18.47656-3.62513A63.67826,63.67826,0,0,1,11.707,51.341a4.07228,4.07228,0,0,0-1.10558-.56,1.17685,1.17685,0,0,0-.24356-.02546,2.322,2.322,0,0,0-1.05532.30721c-3.17787,1.69439-1.78166,5.96141-.05277,9.23928A39.56314,39.56314,0,0,0,30.56159,78.3315a54.57265,54.57265,0,0,0,28.39225,2.03443C72.40722,77.97051,83.4573,71.24659,89.277,61.92187a20.36933,20.36933,0,0,0,3.31674-11.51911,33.82638,33.82638,0,0,0-1.51263-7.46132M30.535,56.07454a71.92715,71.92715,0,0,0,15.78413,2.91789,34.44551,34.44551,0,0,0,20.74752-5.416A45.547,45.547,0,0,0,79.04739,41.88411a38.0417,38.0417,0,0,1-8.42116,4.13419,30.58584,30.58584,0,0,1-19.12985.091,68.22228,68.22228,0,0,1-14.40434-6.874,54.82688,54.82688,0,0,1-11.73186-8.68833,4.22619,4.22619,0,0,0-1.09452-.92,2.759,2.759,0,0,0-1.87982-.12547c-4.04139.98547-3.56515,5.84131-2.81253,8.992A34.22277,34.22277,0,0,0,30.535,56.07454"/>
</svg>
