<svg id="Layer_2" data-name="Layer 2" xmlns="http://www.w3.org/2000/svg" width="100" height="100" viewBox="0 0 100 100">
  <title>refrigerated-pineapple</title>
  <path d="M31.14285,74.105V75.43a18.83645,18.83645,0,0,0,.26115,3.01018l2.047-2.04867ZM43.73822,53.72018,49.92484,47.532,56.113,53.71861,49.92641,59.9068ZM36.16511,61.2929l6.18831-6.1884,6.1884,6.18831-6.18831,6.1884ZM51.29335,46.16616l6.18118,6.18118,5.92322-5.91987a19.139,19.139,0,0,0-7.84793-4.51611ZM31.14319,66.31566v5.05885L34.79662,75.028l6.20129-6.18119-6.20129-6.18454ZM58.84127,53.73351,65.02245,59.913l3.85277-3.8511a19.07014,19.07014,0,0,0-4.15261-8.22985ZM51.2949,61.27905l6.18755-6.1875L63.67,61.27909,57.4824,67.4666Zm18.08287,2.99112V60.275c0-.62147-.0402-1.24294-.10051-1.86608L66.38768,61.3002Zm-25.652,4.56831,6.18671-6.18833,6.18834,6.18671L49.91409,75.0252ZM36.1771,76.39889l6.18748-6.18757,6.18757,6.18748-6.18748,6.18757Zm15.1219-.00534L57.48654,70.206l6.18752,6.18754-6.18754,6.18751ZM31.14285,63.58789l2.30831-2.30831-2.248-2.248c-.02011.402-.06014.80239-.06014,1.22451ZM57.47538,85.32355l-6.18119,6.1812,2.66846,2.67014a19.20272,19.20272,0,0,0,8.41077-3.97339ZM34.796,59.91386l6.18118-6.17951L35.46,48.19305a19.11309,19.11309,0,0,0-3.97506,8.4091ZM69.37777,73.42268l-2.97,2.96831L69.036,79.0226a19.28371,19.28371,0,0,0,.36183-3.59312V73.42269ZM40.99757,83.95934l-6.18118-6.18119L31.905,80.68783a19.17574,19.17574,0,0,0,4.51779,7.868Zm24.045-6.182-6.20129,6.18119,4.95667,4.95667a18.86431,18.86431,0,0,0,4.67693-7.70554Zm-13.507,16.71852-1.60644-1.60477L48.3629,94.4573c.62314.06031,1.26471.09883,1.908.09883.42045,0,.84258-.03853,1.26471-.06031m-2.99025-2.97064-6.18118-6.20129-4.55633,4.55632a19.00827,19.00827,0,0,0,8.20808,4.17439Zm-6.182-39.15757,6.18118-6.18118-4.11576-4.11409a19.20715,19.20715,0,0,0-7.68545,4.69536Zm1.35806,31.598,6.18823-6.18658,6.18658,6.18823-6.18823,6.18658ZM69.37777,70.69274V66.9991l-4.33521-4.3352-6.20129,6.18119L65.04256,75.028ZM50.00921,45.12239s-12.163-13.808-20.57213-15.93707c4.53606-2.54786,14.35074.603,14.35074.603s-2.84937-9.513-10.5968-12.7644c9.85472.66167,12.56339,3.14922,12.56339,3.14922s.784-1.04359-7.30519-14.72931a37.60118,37.60118,0,0,1,11.56,9.93345A29.27016,29.27016,0,0,1,61.55078,5.44387c-8.06905,13.68572-7.30687,14.72931-7.30687,14.72931S56.97436,17.68563,66.809,17.024C59.06155,20.27537,56.2105,29.78837,56.2105,29.78837s9.8162-3.1509,14.35242-.603C62.17225,31.3144,50.00921,45.1224,50.00921,45.1224"/>
</svg>
