<svg xmlns="http://www.w3.org/2000/svg" width="100" height="100" viewBox="0 0 100 100">
  <path d="M76.76287,28.11443H69.11706V22.956a13.54335,13.54335,0,0,0-26.99445-1.65881A13.54335,13.54335,0,0,0,30.97555,34.56451v5.15838h-7.6475a2.76427,2.76427,0,0,0-2.76359,2.76365V87.90672a2.76426,2.76426,0,0,0,2.76359,2.76359H65.61413a2.76462,2.76462,0,0,0,2.76529-2.76359V79.0618h8.29083a2.76459,2.76459,0,0,0,2.76529-2.76359V30.878a2.766,2.766,0,0,0-2.67267-2.7636M52.53373,39.72289H36.50279V34.56451a8.01547,8.01547,0,0,1,16.03094,0ZM47.74246,21.3898a8.01517,8.01517,0,0,1,15.93831,1.47359v5.16008h-7.277a13.63364,13.63364,0,0,0-8.66131-6.63367M73.99927,73.53456H68.472v-31.048a2.76571,2.76571,0,0,0-2.76529-2.76365H58.06094V34.56451a3.11691,3.11691,0,0,0-.09264-.92119h16.031Z"/>
</svg>
