<svg xmlns="http://www.w3.org/2000/svg" width="100" height="100" viewBox="0 0 100 100">
  <g>
    <path d="M88.27627,43.10022a4.25924,4.25924,0,0,0-4.25239,4.254v8.50808H15.99462V22.886a4.254,4.254,0,1,0-8.50807,0V77.114a4.254,4.254,0,1,0,8.50807,0V64.3536H84.00538V77.114a4.254,4.254,0,1,0,8.50807,0V47.35425a4.23457,4.23457,0,0,0-4.23718-4.254"/>
    <path d="M28.7554,34.59265a8.50808,8.50808,0,1,1-8.50807,8.50808,8.50835,8.50835,0,0,1,8.50807-8.50808"/>
    <path d="M43.2085,51.60876H77.95982a1.68746,1.68746,0,0,0,1.70774-1.80869A17.01375,17.01375,0,0,0,62.75245,34.59265H43.2085A1.70489,1.70489,0,0,0,41.50076,36.302V49.89942a1.71569,1.71569,0,0,0,1.70774,1.70934"/>
  </g>
</svg>
