<svg xmlns="http://www.w3.org/2000/svg" width="100" height="100" viewBox="0 0 100 100">
  <g>
    <path d="M33.25921,81.7436H58.482V60.09113H79.52647V42.17234H62.30993V24.9524H58.13167V23.38954H56.56884V18.2564H52.04028v5.13314H50.47744V24.9524H46.30088V51.738H35.52263V42.17234H24.29811V61.30369H15.689V81.7436H33.25921ZM74.39335,44.43576h1.91314v1.91311H74.39335Zm0,3.82628h1.91314v1.91481H74.39335Zm0,3.82628h1.91314v1.91311H74.39335Zm0,3.82628h1.91314v1.91481H74.39335ZM70.56707,44.43576h1.91481v1.91311H70.56707Zm0,3.82628h1.91481v1.91481H70.56707Zm0,3.82628h1.91481v1.91311H70.56707Zm0,3.82628h1.91481v1.91481H70.56707ZM66.74249,44.43576h1.91314v1.91311H66.74249Zm0,7.65256h1.91314v1.91311H66.74249Zm0,3.82628h1.91314v1.91481H66.74249ZM55.262,29.13064h1.91314v3.82628H55.262Zm0,7.65086h1.91314v3.82628H55.262Zm0,7.65426h1.91314V48.262H55.262Zm0,7.65256h1.91314V55.9129H55.262Zm0,7.65256h1.91314v3.82628H55.262Zm0,7.65251h1.91314v3.82628H55.262ZM51.4357,29.13064h1.91314v3.82628H51.4357Zm0,7.65086h1.91314v3.82628H51.4357Zm0,7.65426h1.91314V48.262H51.4357Zm0,7.65256h1.91314V55.9129H51.4357Zm0,7.65256h1.91314v3.82628H51.4357Zm0,7.65251h1.91314v3.82628H51.4357ZM41.86833,55.9146h1.91481v1.91481H41.86833Zm0,3.82628h1.91481V61.654H41.86833Zm0,3.82793h1.91481v1.91311H41.86833Zm0,3.82458h1.91481V69.3082H41.86833Zm0,3.828h1.91481v1.91311H41.86833Zm0,3.82628h1.91481v1.91311H41.86833ZM38.04374,55.9146h1.91314v1.91481H38.04374Zm0,3.82628h1.91314V61.654H38.04374Zm0,3.82793h1.91314v1.91311H38.04374Zm0,3.82458h1.91314V69.3082H38.04374Zm0,3.828h1.91314v1.91311H38.04374Zm0,3.82628h1.91314v1.91311H38.04374ZM25.60665,45.39232h7.65256v1.91481H25.60665Zm0,3.82628h7.65256v1.91311H25.60665Zm0,3.82628h7.65256v1.91481H25.60665Zm0,3.82628h7.65256v1.91311H25.60665Zm0,3.828h7.65256v1.91312H25.60665Zm0,3.82459h7.65256v1.91481H25.60665Zm0,3.82792h7.65256v1.91312H25.60665Zm0,3.82628h7.65256V74.091H25.60665Zm0,3.82628h7.65256V77.919H25.60665Z"/>
    <path d="M84.311,62.26025H60.6494V81.7436H84.311ZM68.65393,79.65364H64.82765V77.74052h3.82628Zm0-3.82459H64.82765V73.91424h3.82628Zm0-5.73939H64.82765V68.17485h3.82628Zm0-3.828H64.82765V64.34856h3.82628Zm5.73942,13.392H70.56707V77.74052h3.82628Zm0-3.82459H70.56707V73.91424h3.82628Zm0-5.73939H70.56707V68.17485h3.82628Zm0-3.828H70.56707V64.34856h3.82628Zm5.7411,13.392H76.30816V77.74052h3.82629Zm0-3.82459H76.30816V73.91424h3.82629Zm0-5.73939H76.30816V68.17485h3.82629Zm0-3.828H76.30816V64.34856h3.82629Z"/>
  </g>
</svg>
