<svg xmlns="http://www.w3.org/2000/svg" width="100" height="100" viewBox="0 0 100 100">
  <g>
    <path d="M23.01679,34.82871H39.92686a1.84548,1.84548,0,0,0,1.79861-1.7984V16.00059A1.69516,1.69516,0,0,0,40.646,14.32142a1.65593,1.65593,0,0,0-1.91816.36059L21.69821,31.70988a1.82969,1.82969,0,0,0-.36038,1.9199A2.48039,2.48039,0,0,0,23.01679,34.82871Z"/>
    <path d="M73.9861,14.08233h-28.783a4.8173,4.8173,0,0,1,.36038,1.797V32.91066a5.3733,5.3733,0,0,1-5.39582,5.39582H23.01679a4.79066,4.79066,0,0,1-1.79861-.36038V81.11967a4.81168,4.81168,0,0,0,4.79635,4.798H73.9861a4.81168,4.81168,0,0,0,4.79635-4.798v-62.241A4.81027,4.81027,0,0,0,73.9861,14.08233ZM50.42854,47.052,58.758,39.97763a.74486.74486,0,1,1,.96417,1.13562l-8.32861,7.07437a.74512.74512,0,1,1-.965-1.13562ZM40.61668,59.28722,57.65442,44.817a.24863.24863,0,0,1,.3501.02776l4.184,4.9273a.24788.24788,0,0,1-.02786.3501L45.12389,64.59341a.24886.24886,0,0,1-.351-.02878l-4.184-4.9271A.24814.24814,0,0,1,40.61668,59.28722ZM33.12231,69.61364,37.39979,62.022l1.7028-1.44707a.24858.24858,0,0,1,.3501.028l4.185,4.92731a.24859.24859,0,0,1-.02878.3499L41.90514,67.3274l-8.17956,2.9961A.49625.49625,0,0,1,33.12231,69.61364ZM66.011,73.87631H61.485a2.44974,2.44974,0,0,1-1.36094-.412l-1.90746-1.27212a.46759.46759,0,0,0-.46687-.0296l-2.3402,1.17056a2.44757,2.44757,0,0,1-2.71271-.34825l-2.27473-1.991a.468.468,0,0,0-.61489,0l-2.59871,2.27473a2.453,2.453,0,0,1-1.61585.60687H33.22551a.99377.99377,0,0,1,0-1.98754h12.3671a.46983.46983,0,0,0,.307-.11491l2.59964-2.27473a2.45966,2.45966,0,0,1,3.2316,0l2.27472,1.99021a.46176.46176,0,0,0,.51529.0664l2.3402-1.16974a2.45471,2.45471,0,0,1,2.45872.15356l1.90746,1.2711a.462.462,0,0,0,.25862.07894H66.011a.99377.99377,0,0,1,0,1.98753Zm.88276-27.77387L63.67561,48.836a.25.25,0,0,1-.351-.028l-4.184-4.92814a.24823.24823,0,0,1,.02878-.3503l3.2172-2.73337a2.48486,2.48486,0,0,1,3.50183.28554l1.28908,1.519A2.48446,2.48446,0,0,1,66.89374,46.10244Z"/>
  </g>
</svg>
