<svg xmlns="http://www.w3.org/2000/svg" width="784.7" height="250.2" viewBox="0 0 784.7 250.2">
  <defs>
    <linearGradient id="logo-linear-gradient" x1="127.9917" y1="246.6875" x2="127.9917" y2="0.9483" gradientUnits="userSpaceOnUse">
      <stop offset="0" stop-color="#2d338c"/>
      <stop offset="1" stop-color="#41bb96"/>
    </linearGradient>
  </defs>
  <path d="M296.03,170.4l8.4-10c5.8,4.8,11.9,7.8,19.2,7.8,5.8,0,9.3-2.3,9.3-6.1v-.2c0-3.6-2.2-5.4-13-8.2-13-3.3-21.3-6.9-21.3-19.7v-.2c0-11.7,9.4-19.4,22.5-19.4a36.8273,36.8273,0,0,1,23.9,8.2l-7.4,10.7c-5.7-4-11.3-6.3-16.7-6.3s-8.3,2.5-8.3,5.6v.2c0,4.2,2.8,5.6,13.9,8.5,13,3.4,20.4,8.1,20.4,19.3v.2c0,12.8-9.7,19.9-23.6,19.9a40.7757,40.7757,0,0,1-27.3-10.3m77.7-55.4h13.1l27.6,64.8h-14.8l-5.9-14.4h-27.2l-5.9,14.4h-14.4l27.5-64.8m14.9,37.8-8.6-20.8-8.5,20.9h17.1Zm29.8-37.4h13.1l30.1,39.6V115.4h14v64.4h-12l-31.2-40.9v40.9h-14V115.4m88.3,0h25.1c20.2,0,34.2,13.9,34.2,32v.2c0,18.1-14,32.2-34.2,32.2h-25.1V115.4m25.1,51.6c11.6,0,19.4-7.8,19.4-19.2v-.2c0-11.4-7.8-19.4-19.4-19.4h-10.9V167Zm41.2-51.6h14.2v64.3h-14.2Zm22.8,0h48.5V128h-34.4v13.1h30.3v12.6h-30.3v13.5h34.9v12.6h-49V115.4m52.6,32.4v-.2c0-18.3,14.2-33.3,33.7-33.3,11.6,0,18.6,3.1,25.3,8.8l-8.9,10.8c-5-4.1-9.4-6.5-16.8-6.5-10.3,0-18.5,9.1-18.5,20v.2c0,11.8,8.1,20.4,19.5,20.4a22.4677,22.4677,0,0,0,13.3-3.9v-9.2h-14.2V142.7h27.9v27.9a41.7349,41.7349,0,0,1-27.5,10.2c-20,.1-33.8-14-33.8-33m67.9,0v-.2c0-18.3,14.4-33.3,34.3-33.3s34.1,14.8,34.1,33.1v.2c0,18.3-14.4,33.3-34.3,33.3-19.8,0-34.1-14.8-34.1-33.1m53.6,0v-.2c0-11-8.1-20.2-19.5-20.2s-19.3,9-19.3,20v.2c0,11,8.1,20.2,19.5,20.2S769.93,158.8,769.93,147.8ZM300.43,1.6h38.8c22.7,0,36.4,13.4,36.4,32.8v.3c0,22-17.1,33.4-38.4,33.4h-15.9V96.6h-20.9V1.6m37.4,47.9c10.4,0,16.6-6.2,16.6-14.4v-.3c0-9.4-6.5-14.4-17-14.4h-16.1v29h16.5Zm43.1-.1v-.3c0-27,21.3-49.1,50.6-49.1s50.3,21.8,50.3,48.8v.3c0,27-21.3,49.1-50.6,49.1s-50.3-21.8-50.3-48.8m79.1,0v-.3c0-16.3-11.9-29.8-28.8-29.8s-28.5,13.3-28.5,29.6v.3c0,16.3,11.9,29.8,28.8,29.8C448.33,79,460.03,65.7,460.03,49.4Zm92,12c10.4-4.9,17.3-14.1,17.3-28.2V33c0-9-2.8-16.4-8.1-21.7-6.2-6.3-15.6-9.7-27.7-9.7h-43.4v95h20.9V66.2h20.3l20.4,30.4h24.4l-24.1-35.2m-41-13.6V20.5h20.8c10.2,0,16.4,4.6,16.4,13.6v.3c0,8-5.8,13.4-16,13.4Zm91.6-26.9h-28.9V1.6h78.7V20.9h-28.9V96.6h-20.9V20.9m52.8,51.3V72c0-14.2,11.4-25.6,26.7-25.6s26.6,11.3,26.6,25.5v.2c0,14.2-11.4,25.6-26.7,25.6s-26.6-11.3-26.6-25.5m39.5,0V72c0-7.3-5.2-13.6-13-13.6-8,0-12.8,6.2-12.8,13.4V72c0,7.3,5.2,13.6,13,13.6C690.13,85.7,694.93,79.5,694.93,72.2Zm22.1-12.9h-5.8V47.8h5.8V44.7c0-5.4,1.4-9.4,4-11.9,2.6-2.6,6.3-3.9,11.3-3.9a31.1426,31.1426,0,0,1,9.9,1.4V41.9a18.5658,18.5658,0,0,0-6.3-1.2c-3.2,0-5.1,1.7-5.1,5.3v1.9h11.3V59.3h-11.1V96.6h-14V59.3" transform="translate(-0.0298)"/>
  <path d="M295.93,201.9h3.4l8,23.2,7.6-23.3h2.6l7.6,23.3,8-23.2h3.3l-10,28.1h-2.6l-7.7-22.6-7.6,22.6h-2.7l-9.9-28.1m40,21.9c0-4.5,3.6-6.8,8.8-6.8a22.1551,22.1551,0,0,1,6.3.9v-.6c0-3.7-2.2-5.6-6.1-5.6a13.84,13.84,0,0,0-6.2,1.5l-.9-2.5a17.6406,17.6406,0,0,1,7.5-1.8c2.9,0,5.2.8,6.6,2.3a8.1183,8.1183,0,0,1,2.1,6v12.6h-3v-3.1a9.0832,9.0832,0,0,1-7.4,3.5c-3.9,0-7.7-2.2-7.7-6.4m15.1-1.6v-1.9a22.3655,22.3655,0,0,0-6-.9c-3.8,0-6,1.7-6,4.1v.1c0,2.6,2.4,4.1,5.2,4.1,3.8,0,6.8-2.2,6.8-5.5Zm9,2.1V211.9h-2.9v-2.7h2.9V203h3.1v6.2h6.5v2.7h-6.6v12c0,2.5,1.4,3.4,3.5,3.4a6.8841,6.8841,0,0,0,3-.7v2.6a7.2444,7.2444,0,0,1-3.7.9c-3.3,0-5.8-1.6-5.8-5.8m22,3.3a8.8073,8.8073,0,0,0,6.5-2.9l1.9,1.7a10.7667,10.7667,0,0,1-8.5,3.9c-5.7,0-10.3-4.3-10.3-10.7,0-6,4.2-10.7,9.9-10.7,6.1,0,9.6,4.9,9.6,10.9v1.1h-16.3a7.1144,7.1144,0,0,0,7.2,6.7m6-9.3c-.4-3.7-2.5-6.9-6.6-6.9-3.5,0-6.2,2.9-6.7,6.9h13.3Zm7.4-9.1h3.1v5.4c1.5-3.4,4.5-5.9,8.4-5.7v3.3h-.2c-4.5,0-8.2,3.2-8.2,9.4v8.2h-3.1V209.2m18.2,2.7h-2.8v-2.7h2.8v-1.8a7.2384,7.2384,0,0,1,1.8-5.3,6.0563,6.0563,0,0,1,4.4-1.6,11.0909,11.0909,0,0,1,3.4.5v2.7a11.07,11.07,0,0,0-3-.5c-2.4,0-3.6,1.4-3.6,4.4v1.7h6.5v2.6h-6.5v17.9h-3.1V211.9m13.1-2.7h3.1v5.4c1.5-3.4,4.5-5.9,8.4-5.7v3.3h-.2c-4.5,0-8.2,3.2-8.2,9.4v8.2h-3.1V209.2m12.6,10.4a10.7,10.7,0,1,1,21.4-.1v.1a10.7,10.7,0,1,1-21.4,0m18.3,0c0-4.5-3.3-8.1-7.6-8.1-4.5,0-7.5,3.6-7.5,8v.1a7.5627,7.5627,0,1,0,15.1,0Zm7.3-10.4h3.1v3.6a7.8639,7.8639,0,0,1,7-4c5,0,7.9,3.3,7.9,8.2v12.8h-3.1v-12c0-3.8-2.1-6.2-5.7-6.2a6.0963,6.0963,0,0,0-6.2,6.4v11.8h-3.1V209.2m24.1,15.1V211.9h-2.9v-2.7h2.9V203h3.1v6.2h6.5v2.7h-6.5v12c0,2.5,1.4,3.4,3.5,3.4a6.8841,6.8841,0,0,0,3-.7v2.6a7.2444,7.2444,0,0,1-3.7.9c-3.4,0-5.9-1.6-5.9-5.8m18-4.7a10.7,10.7,0,1,1,21.4-.1v.1a10.7,10.7,0,1,1-21.4,0m18.3,0c0-4.5-3.3-8.1-7.6-8.1-4.5,0-7.5,3.6-7.5,8v.1a7.5627,7.5627,0,1,0,15.1,0Zm7.6-7.7h-2.8v-2.7h2.8v-1.8a7.2384,7.2384,0,0,1,1.8-5.3,6.0564,6.0564,0,0,1,4.4-1.6,11.0909,11.0909,0,0,1,3.4.5v2.7a11.07,11.07,0,0,0-3-.5c-2.4,0-3.6,1.4-3.6,4.4v1.7h6.5v2.6h-6.5v17.9h-3.1V211.9m18.1,4c0-7.8,5.8-14.5,14.2-14.5a13.9611,13.9611,0,0,1,14.2,14.3v.1a14.1053,14.1053,0,0,1-14.2,14.4,13.9612,13.9612,0,0,1-14.2-14.3m25.1,0c0-6.4-4.6-11.6-11-11.6s-10.9,5.1-10.9,11.4v.1c0,6.3,4.6,11.5,11,11.5S575.83,222.2,575.83,215.9Zm7.8-6.7h3.1v4.1c1.7-2.5,4.1-4.6,7.9-4.6,4.9,0,9.8,3.9,9.8,10.7v.1c0,6.7-4.9,10.7-9.8,10.7a9.3931,9.3931,0,0,1-7.9-4.4v10.3h-3.1V209.2m17.6,10.3c0-4.9-3.3-8-7.2-8a7.6314,7.6314,0,0,0-7.4,7.9v.1a7.6591,7.6591,0,0,0,7.4,8C597.93,227.4,601.23,224.5,601.23,219.5Zm6.6-10.3h3.1v4.1c1.7-2.5,4.1-4.6,7.9-4.6,4.9,0,9.8,3.9,9.8,10.7v.1c0,6.7-4.9,10.7-9.8,10.7a9.3931,9.3931,0,0,1-7.9-4.4v10.3h-3.1V209.2m17.6,10.3c0-4.9-3.3-8-7.2-8a7.6314,7.6314,0,0,0-7.4,7.9v.1a7.6591,7.6591,0,0,0,7.4,8C622.23,227.4,625.43,224.5,625.43,219.5Zm6.5.1a10.7,10.7,0,1,1,21.4-.1v.1a10.7,10.7,0,1,1-21.4,0m18.3,0c0-4.5-3.3-8.1-7.6-8.1-4.5,0-7.5,3.6-7.5,8v.1a7.5627,7.5627,0,1,0,15.1,0Zm6.8-10.4h3.1v5.4c1.5-3.4,4.5-5.9,8.4-5.7v3.3h-.2c-4.5,0-8.2,3.2-8.2,9.4v8.2h-3.1V209.2m17.6,15.1V211.9h-2.9v-2.7h2.9V203h3.1v6.2h6.5v2.7h-6.5v12c0,2.5,1.4,3.4,3.5,3.4a6.8841,6.8841,0,0,0,3-.7v2.6a7.2444,7.2444,0,0,1-3.7.9c-3.4,0-5.9-1.6-5.9-5.8m13.1-2.3V209.2h3.1v12c0,3.8,2.1,6.2,5.7,6.2a6.0963,6.0963,0,0,0,6.2-6.4V209.2h3v20.6h-3v-3.6a7.8639,7.8639,0,0,1-7,4c-5,0-8-3.3-8-8.2m23.5-12.8h3.1v3.6a7.8639,7.8639,0,0,1,7-4c5,0,7.9,3.3,7.9,8.2v12.8h-3.1v-12c0-3.8-2.1-6.2-5.7-6.2a6.0964,6.0964,0,0,0-6.2,6.4v11.8h-3.1V209.2m22.6-7.9h3.5v3.4h-3.5Zm.2,7.9h3.1v20.6h-3.1Zm9.8,15.1V211.9h-2.9v-2.7h2.9V203h3.1v6.2h6.5v2.7h-6.5v12c0,2.5,1.4,3.4,3.5,3.4a6.8841,6.8841,0,0,0,3-.7v2.6a7.2444,7.2444,0,0,1-3.7.9c-3.4,0-5.9-1.6-5.9-5.8m11.7,10.9,1-2.4a6.5966,6.5966,0,0,0,3.2.8c1.8,0,3-1,4.2-3.9l-9.4-20.5h3.4l7.5,17.2,6.6-17.2h3.3l-8.6,21.2c-1.8,4.3-3.7,5.8-6.8,5.8a8.6774,8.6774,0,0,1-4.4-1" transform="translate(-0.0298)" fill="#6f7173"/>
  <path d="M234.93,172.2l-107.2,78h-3.2l-56.5-41.1a1.831,1.831,0,0,1,.6-3.2c17.1-4.8,34.5-11.1,51.6-17.3,42.8-15.6,83.8-30.4,114.3-19.6A1.849,1.849,0,0,1,234.93,172.2ZM89.63,62.3c-23.1-7.1-43.5-10.6-60.7-6.7a2.626,2.626,0,0,0-2,1.8c-1.3,4.1-5.1,15.8-6.8,20.9a1.7687,1.7687,0,0,0,1.7,2.3c21-.8,44.3-7.6,67.9-15.7A1.39,1.39,0,0,0,89.63,62.3Zm155.9,57.4a2.5548,2.5548,0,0,0-1.2-1.5c-31.2-18.9-76.6-2.5-124.4,14.8-34.5,12.5-69.9,25.4-102.4,25.4a149.42,149.42,0,0,1-15.5-1.3,1.8109,1.8109,0,0,0-2,1.52v.5763A1.7082,1.7082,0,0,0,.73,160.3l39.8,28.9a3.1443,3.1443,0,0,0,2.1.5c22.4-4.2,46.5-12.9,70.1-21.5,49.8-18.1,101.1-36.7,140.5-14.7a1.7656,1.7656,0,0,0,2.6-2.1ZM44.43,3.6,35.83,30a1.73,1.73,0,0,0,1.8,2.3c28.6-1.8,59.8,8.7,87.9,19.3a1.275,1.275,0,0,0,1.2,0c30.2-10.8,60.5-20.3,87.9-19.5a1.84,1.84,0,0,0,1.8-2.3c-1.9-5.9-6.8-21.1-8.6-26.3a2.706,2.706,0,0,0-2.6-1.8H47.03A2.7962,2.7962,0,0,0,44.43,3.6ZM11.73,104.3,2.33,133a1.859,1.859,0,0,0,1.4,2.4c31.5,5,70.7-9.1,108.8-22.9,41.8-15.2,84.6-30.6,120.5-22.3a1.7463,1.7463,0,0,0,2.1-2.3c-2.4-7.3-8.4-25.7-10.1-31.2a2.4521,2.4521,0,0,0-2.1-1.8c-28.9-4.5-65.1,8.8-102.9,22.4-34.5,12.4-66.2,24.8-105.8,25.2A2.4951,2.4951,0,0,0,11.73,104.3Z" transform="translate(-0.0298)" fill="url(#logo-linear-gradient)"/>
</svg>
