<?xml version="1.0" encoding="utf-8"?>
<!-- Generator: Adobe Illustrator 23.0.3, SVG Export Plug-In . SVG Version: 6.00 Build 0)  -->
<svg xmlns="http://www.w3.org/2000/svg" width="784.7" height="250.2" viewBox="0 0 784.7 250.2">
<style type="text/css">
	.st0{fill:#231F20;}
	.st1{fill:#6F7173;}
	.st2{fill:url(#SVGID_1_);}
	.st3{fill:url(#SVGID_2_);}
	.st4{fill:url(#SVGID_3_);}
	.st5{fill:url(#SVGID_4_);}
	.st6{fill:url(#SVGID_5_);}
</style>
<g>
	<path class="st0" d="M346.7,160.6c0-11.2-7.4-15.9-20.4-19.3c-11.1-2.9-13.9-4.2-13.9-8.5v-0.2c0-3.1,2.8-5.6,8.3-5.6
		c5.4,0,11,2.4,16.7,6.3l7.4-10.7c-6.5-5.2-14.5-8.2-23.9-8.2c-13.1,0-22.5,7.7-22.5,19.4v0.2c0,12.8,8.4,16.4,21.3,19.7
		c10.8,2.8,13,4.6,13,8.2v0.2c0,3.8-3.5,6.1-9.3,6.1c-7.4,0-13.4-3-19.2-7.8l-8.4,10c7.7,6.9,17.6,10.3,27.3,10.3
		c13.9,0,23.6-7.2,23.6-19.9V160.6z M373.5,115l-27.6,64.8h14.4l5.9-14.4h27.2l5.9,14.4h14.8L386.5,115H373.5z M371.2,152.8
		l8.5-20.9l8.5,20.9H371.2z M461.4,155.1l-30.1-39.6h-13.1v64.3h14v-40.9l31.2,40.9h12v-64.3h-14V155.1z M531.6,115.4h-25.1v64.3
		h25.1c20.2,0,34.2-14.1,34.2-32.2v-0.2C565.8,129.3,551.8,115.4,531.6,115.4z M551,147.8c0,11.4-7.8,19.2-19.4,19.2h-10.9v-38.8
		h10.9c11.6,0,19.4,8,19.4,19.4V147.8z M572.7,179.8h14.2v-64.3h-14.2V179.8z M609.7,153.7H640v-12.6h-30.3v-13h34.5v-12.6h-48.5
		v64.3h49v-12.6h-34.9V153.7z M681.5,155h14.2v9.2c-3.6,2.6-8.2,3.9-13.3,3.9c-11.4,0-19.5-8.6-19.5-20.4v-0.2
		c0-10.9,8.2-20,18.5-20c7.4,0,11.9,2.4,16.8,6.5l8.9-10.8c-6.7-5.7-13.7-8.8-25.3-8.8c-19.5,0-33.7,15-33.7,33.3v0.2
		c0,19,13.8,33.1,33.8,33.1c11.8,0,20.9-4.6,27.5-10.2v-27.9h-27.9V155z M750.4,114.3c-19.9,0-34.3,15-34.3,33.3v0.2
		c0,18.3,14.2,33.1,34.1,33.1c19.9,0,34.3-15,34.3-33.3v-0.2C784.5,129.1,770.3,114.3,750.4,114.3z M769.7,147.8
		c0,11-7.9,20-19.3,20s-19.5-9.2-19.5-20.2v-0.2c0-11,7.9-20,19.3-20c11.4,0,19.5,9.2,19.5,20.2V147.8z M321.1,68.1H337
		c21.3,0,38.4-11.4,38.4-33.4v-0.3c0-19.4-13.7-32.8-36.4-32.8h-38.8v95h20.9V68.1z M321.1,20.5h16.1c10.4,0,17,5,17,14.4v0.3
		c0,8.1-6.1,14.4-16.6,14.4h-16.6V20.5z M431.3,0c-29.3,0-50.6,22.1-50.6,49.1v0.3c0,27,21,48.8,50.3,48.8
		c29.3,0,50.6-22.1,50.6-49.1v-0.3C481.6,21.9,460.6,0,431.3,0z M459.8,49.4c0,16.3-11.7,29.6-28.5,29.6
		c-16.8,0-28.8-13.6-28.8-29.8v-0.3c0-16.3,11.7-29.6,28.5-29.6c16.8,0,28.8,13.6,28.8,29.8V49.4z M510.8,66.2h20.3l20.4,30.4h24.4
		l-24.1-35.2c10.4-4.9,17.3-14.1,17.3-28.2V33c0-9-2.8-16.4-8.1-21.7c-6.2-6.2-15.6-9.6-27.7-9.6h-43.4v95h20.9V66.2z M510.8,20.5
		h20.8c10.2,0,16.4,4.6,16.4,13.6v0.3c0,8-5.8,13.4-16,13.4h-21.2V20.5z M602.4,96.6h20.9V20.9h28.9V1.6h-78.7v19.3h28.9V96.6z
		 M681.7,97.7c15.3,0,26.7-11.5,26.7-25.6v-0.2c0-14.2-11.3-25.5-26.6-25.5c-15.3,0-26.7,11.5-26.7,25.6v0.2
		C655.2,86.4,666.5,97.7,681.7,97.7z M669,71.9c0-7.3,4.8-13.4,12.8-13.4c7.7,0,13,6.3,13,13.6v0.2c0,7.3-4.8,13.4-12.8,13.4
		c-7.7,0-13-6.3-13-13.6V71.9z M716.8,96.6h14V59.3h11.1V47.9h-11.3V46c0-3.7,1.8-5.3,5.1-5.3c2.4,0,4.3,0.5,6.3,1.2V30.3
		c-2.6-0.8-5.5-1.4-9.9-1.4c-5,0-8.7,1.3-11.3,3.9c-2.6,2.6-4,6.5-4,11.9v3.1H711v11.5h5.8V96.6z"/>
</g>
<g>
	<path class="st1" d="M296.1,201.5h3.4l8,23.2l7.6-23.3h2.6l7.6,23.3l8-23.2h3.3l-9.9,28.1H324l-7.6-22.6l-7.7,22.6H306L296.1,201.5
		z"/>
	<path class="st1" d="M336.1,223.4L336.1,223.4c0-4.5,3.6-6.8,8.8-6.8c2.6,0,4.5,0.4,6.3,0.9v-0.6c0-3.7-2.2-5.6-6.1-5.6
		c-2.4,0-4.3,0.6-6.2,1.5l-0.9-2.5c2.3-1,4.5-1.8,7.5-1.8c2.9,0,5.2,0.8,6.6,2.3c1.4,1.4,2.1,3.4,2.1,6v12.6h-3v-3.1
		c-1.4,1.8-3.8,3.5-7.4,3.5C339.9,229.8,336.1,227.6,336.1,223.4z M351.2,221.8v-1.9c-1.5-0.4-3.5-0.9-6-0.9c-3.8,0-6,1.7-6,4.1v0.1
		c0,2.6,2.4,4.1,5.2,4.1C348.2,227.3,351.2,225.1,351.2,221.8z"/>
	<path class="st1" d="M360.2,223.9v-12.4h-2.9v-2.7h2.9v-6.2h3.1v6.2h6.5v2.7h-6.5v12c0,2.5,1.4,3.4,3.5,3.4c1,0,1.9-0.2,3-0.7v2.6
		c-1.1,0.6-2.2,0.9-3.7,0.9C362.7,229.7,360.2,228.1,360.2,223.9z"/>
	<path class="st1" d="M382.2,227.2c2.8,0,4.8-1.2,6.5-2.9l1.9,1.7c-2.1,2.3-4.6,3.9-8.5,3.9c-5.7,0-10.3-4.3-10.3-10.7
		c0-6,4.2-10.7,9.9-10.7c6.1,0,9.6,4.9,9.6,10.9c0,0.3,0,0.6,0,1.1h-16.3C375.4,224.7,378.6,227.2,382.2,227.2z M388.2,217.9
		c-0.4-3.7-2.5-6.9-6.6-6.9c-3.5,0-6.2,2.9-6.7,6.9H388.2z"/>
	<path class="st1" d="M395.6,208.8h3.1v5.4c1.5-3.4,4.5-5.9,8.4-5.7v3.3h-0.2c-4.5,0-8.2,3.2-8.2,9.4v8.2h-3.1V208.8z"/>
	<path class="st1" d="M413.8,211.5h-2.8v-2.7h2.8V207c0-2.3,0.6-4.1,1.8-5.3c1-1,2.5-1.6,4.4-1.6c1.4,0,2.4,0.2,3.4,0.5v2.7
		c-1.1-0.3-2-0.5-3-0.5c-2.4,0-3.6,1.4-3.6,4.4v1.7h6.5v2.6h-6.5v17.9h-3.1V211.5z"/>
	<path class="st1" d="M426.8,208.8h3.1v5.4c1.5-3.4,4.5-5.9,8.4-5.7v3.3H438c-4.5,0-8.2,3.2-8.2,9.4v8.2h-3.1V208.8z"/>
	<path class="st1" d="M439.4,219.2L439.4,219.2c0-5.9,4.5-10.8,10.7-10.8c6.2,0,10.7,4.9,10.7,10.7v0.1c0,5.8-4.6,10.7-10.8,10.7
		C443.9,229.8,439.4,225,439.4,219.2z M457.7,219.2L457.7,219.2c0-4.5-3.3-8.1-7.6-8.1c-4.5,0-7.5,3.6-7.5,8v0.1c0,4.4,3.3,8,7.6,8
		C454.6,227.1,457.7,223.5,457.7,219.2z"/>
	<path class="st1" d="M465,208.8h3.1v3.6c1.4-2.2,3.5-4,7-4c5,0,7.9,3.3,7.9,8.2v12.8h-3.1v-12c0-3.8-2.1-6.2-5.7-6.2
		c-3.5,0-6.2,2.6-6.2,6.4v11.8H465V208.8z"/>
	<path class="st1" d="M489,223.9v-12.4h-2.9v-2.7h2.9v-6.2h3.1v6.2h6.5v2.7H492v12c0,2.5,1.4,3.4,3.5,3.4c1,0,1.9-0.2,3-0.7v2.6
		c-1.1,0.6-2.2,0.9-3.7,0.9C491.5,229.7,489,228.1,489,223.9z"/>
	<path class="st1" d="M507,219.2L507,219.2c0-5.9,4.5-10.8,10.7-10.8c6.2,0,10.7,4.9,10.7,10.7v0.1c0,5.8-4.6,10.7-10.8,10.7
		C511.5,229.8,507,225,507,219.2z M525.3,219.2L525.3,219.2c0-4.5-3.3-8.1-7.6-8.1c-4.5,0-7.5,3.6-7.5,8v0.1c0,4.4,3.3,8,7.6,8
		C522.2,227.1,525.3,223.5,525.3,219.2z"/>
	<path class="st1" d="M532.9,211.5h-2.8v-2.7h2.8V207c0-2.3,0.6-4.1,1.8-5.3c1-1,2.5-1.6,4.4-1.6c1.4,0,2.4,0.2,3.4,0.5v2.7
		c-1.1-0.3-2-0.5-3-0.5c-2.4,0-3.6,1.4-3.6,4.4v1.7h6.5v2.6H536v17.9h-3.1V211.5z"/>
	<path class="st1" d="M550.9,215.5L550.9,215.5c0-7.8,5.8-14.5,14.2-14.5c8.5,0,14.2,6.6,14.2,14.3c0,0,0,0,0,0.1
		c0,7.7-5.8,14.4-14.2,14.4C556.5,229.8,550.9,223.2,550.9,215.5z M576,215.5L576,215.5c0-6.4-4.6-11.6-11-11.6s-10.9,5.1-10.9,11.4
		v0.1c0,6.3,4.6,11.5,11,11.5S576,221.8,576,215.5z"/>
	<path class="st1" d="M583.8,208.8h3.1v4.1c1.7-2.5,4.1-4.6,7.9-4.6c4.9,0,9.8,3.9,9.8,10.7v0.1c0,6.7-4.9,10.7-9.8,10.7
		c-3.8,0-6.3-2.1-7.9-4.4v10.3h-3.1V208.8z M601.4,219.1L601.4,219.1c0-4.9-3.3-8-7.2-8c-3.8,0-7.4,3.2-7.4,7.9v0.1
		c0,4.8,3.6,8,7.4,8C598.1,227.1,601.4,224.1,601.4,219.1z"/>
	<path class="st1" d="M608,208.8h3.1v4.1c1.7-2.5,4.1-4.6,7.9-4.6c4.9,0,9.8,3.9,9.8,10.7v0.1c0,6.7-4.9,10.7-9.8,10.7
		c-3.8,0-6.3-2.1-7.9-4.4v10.3H608V208.8z M625.6,219.1L625.6,219.1c0-4.9-3.3-8-7.2-8c-3.8,0-7.4,3.2-7.4,7.9v0.1
		c0,4.8,3.6,8,7.4,8C622.4,227.1,625.6,224.1,625.6,219.1z"/>
	<path class="st1" d="M632.1,219.2L632.1,219.2c0-5.9,4.5-10.8,10.7-10.8c6.2,0,10.7,4.9,10.7,10.7v0.1c0,5.8-4.6,10.7-10.8,10.7
		C636.6,229.8,632.1,225,632.1,219.2z M650.4,219.2L650.4,219.2c0-4.5-3.3-8.1-7.6-8.1c-4.5,0-7.5,3.6-7.5,8v0.1c0,4.4,3.3,8,7.6,8
		C647.3,227.1,650.4,223.5,650.4,219.2z"/>
	<path class="st1" d="M657.2,208.8h3.1v5.4c1.5-3.4,4.5-5.9,8.4-5.7v3.3h-0.2c-4.5,0-8.2,3.2-8.2,9.4v8.2h-3.1V208.8z"/>
	<path class="st1" d="M674.8,223.9v-12.4h-2.9v-2.7h2.9v-6.2h3.1v6.2h6.5v2.7h-6.5v12c0,2.5,1.4,3.4,3.5,3.4c1,0,1.9-0.2,3-0.7v2.6
		c-1.1,0.6-2.2,0.9-3.7,0.9C677.3,229.7,674.8,228.1,674.8,223.9z"/>
	<path class="st1" d="M687.9,221.6v-12.8h3.1v12c0,3.8,2.1,6.2,5.7,6.2c3.5,0,6.2-2.6,6.2-6.4v-11.8h3v20.6h-3v-3.6
		c-1.4,2.2-3.5,4-7,4C690.8,229.8,687.9,226.5,687.9,221.6z"/>
	<path class="st1" d="M711.4,208.8h3.1v3.6c1.4-2.2,3.5-4,7-4c5,0,7.9,3.3,7.9,8.2v12.8h-3.1v-12c0-3.8-2.1-6.2-5.7-6.2
		c-3.5,0-6.2,2.6-6.2,6.4v11.8h-3.1V208.8z"/>
	<path class="st1" d="M733.9,200.9h3.5v3.4h-3.5V200.9z M734.1,208.8h3.1v20.6h-3.1V208.8z"/>
	<path class="st1" d="M743.9,223.9v-12.4H741v-2.7h2.9v-6.2h3.1v6.2h6.5v2.7h-6.5v12c0,2.5,1.4,3.4,3.5,3.4c1,0,1.9-0.2,3-0.7v2.6
		c-1.1,0.6-2.2,0.9-3.7,0.9C746.4,229.7,743.9,228.1,743.9,223.9z"/>
	<path class="st1" d="M755.5,234.8l1-2.4c1,0.5,1.9,0.8,3.2,0.8c1.8,0,3-1,4.2-3.9l-9.4-20.5h3.4l7.5,17.2l6.6-17.2h3.3l-8.6,21.2
		c-1.8,4.3-3.7,5.8-6.8,5.8C758.2,235.9,756.9,235.5,755.5,234.8z"/>
</g>
<linearGradient id="SVGID_1_" gradientUnits="userSpaceOnUse" x1="41.7983" y1="19.858" x2="99.7731" y2="236.2229">
	<stop  offset="0" style="stop-color:#E70000"/>
	<stop  offset="2.919961e-02" style="stop-color:#EC1C00"/>
	<stop  offset="9.848512e-02" style="stop-color:#F65800"/>
	<stop  offset="0.1495" style="stop-color:#FD7E00"/>
	<stop  offset="0.1763" style="stop-color:#FF8C00"/>
	<stop  offset="0.2359" style="stop-color:#FFB400"/>
	<stop  offset="0.2936" style="stop-color:#FFD400"/>
	<stop  offset="0.3421" style="stop-color:#FFE800"/>
	<stop  offset="0.3752" style="stop-color:#FFEF00"/>
	<stop  offset="0.3952" style="stop-color:#F6EB01"/>
	<stop  offset="0.428" style="stop-color:#DDE004"/>
	<stop  offset="0.4696" style="stop-color:#B4CF09"/>
	<stop  offset="0.5184" style="stop-color:#7CB710"/>
	<stop  offset="0.5725" style="stop-color:#359818"/>
	<stop  offset="0.6101" style="stop-color:#00811F"/>
	<stop  offset="0.623" style="stop-color:#007B34"/>
	<stop  offset="0.6798" style="stop-color:#00648A"/>
	<stop  offset="0.7261" style="stop-color:#0053C9"/>
	<stop  offset="0.7597" style="stop-color:#0048F0"/>
	<stop  offset="0.7772" style="stop-color:#0044FF"/>
	<stop  offset="0.7969" style="stop-color:#0D3DF2"/>
	<stop  offset="0.8918" style="stop-color:#451CBA"/>
	<stop  offset="0.9623" style="stop-color:#690896"/>
	<stop  offset="1" style="stop-color:#760089"/>
</linearGradient>
<path class="st2" d="M22,80.2c21-0.8,44.2-7.6,67.7-15.7c1.2-0.4,1.2-2.2-0.1-2.6c-23-7.1-43.4-10.6-60.7-6.7
	c-0.9,0.2-1.7,0.9-2,1.8C25.8,61,22,72.8,20.3,77.9C19.9,79,20.8,80.2,22,80.2z"/>
<linearGradient id="SVGID_2_" gradientUnits="userSpaceOnUse" x1="116.8435" y1="-5.2033" x2="172.6767" y2="203.1691">
	<stop  offset="0" style="stop-color:#E70000"/>
	<stop  offset="2.919961e-02" style="stop-color:#EC1C00"/>
	<stop  offset="9.848512e-02" style="stop-color:#F65800"/>
	<stop  offset="0.1495" style="stop-color:#FD7E00"/>
	<stop  offset="0.1763" style="stop-color:#FF8C00"/>
	<stop  offset="0.2359" style="stop-color:#FFB400"/>
	<stop  offset="0.2936" style="stop-color:#FFD400"/>
	<stop  offset="0.3421" style="stop-color:#FFE800"/>
	<stop  offset="0.3752" style="stop-color:#FFEF00"/>
	<stop  offset="0.3952" style="stop-color:#F6EB01"/>
	<stop  offset="0.428" style="stop-color:#DDE004"/>
	<stop  offset="0.4696" style="stop-color:#B4CF09"/>
	<stop  offset="0.5184" style="stop-color:#7CB710"/>
	<stop  offset="0.5725" style="stop-color:#359818"/>
	<stop  offset="0.6101" style="stop-color:#00811F"/>
	<stop  offset="0.623" style="stop-color:#007B34"/>
	<stop  offset="0.6798" style="stop-color:#00648A"/>
	<stop  offset="0.7261" style="stop-color:#0053C9"/>
	<stop  offset="0.7597" style="stop-color:#0048F0"/>
	<stop  offset="0.7772" style="stop-color:#0044FF"/>
	<stop  offset="0.7969" style="stop-color:#0D3DF2"/>
	<stop  offset="0.8918" style="stop-color:#451CBA"/>
	<stop  offset="0.9623" style="stop-color:#690896"/>
	<stop  offset="1" style="stop-color:#760089"/>
</linearGradient>
<path class="st3" d="M37.8,31.9c28.6-1.8,59.7,8.7,87.9,19.3c0.4,0.1,0.8,0.2,1.2,0c30.2-10.8,60.5-20.3,87.9-19.5
	c1.2,0,2.1-1.1,1.8-2.3c-1.9-5.9-6.8-21.1-8.6-26.3c-0.4-1.1-1.4-1.8-2.6-1.8H47.2C46,1.2,45,2,44.6,3.1L36,29.5
	C35.6,30.8,36.5,31.9,37.8,31.9z"/>
<linearGradient id="SVGID_3_" gradientUnits="userSpaceOnUse" x1="94.5725" y1="19.4607" x2="144.4627" y2="205.6536">
	<stop  offset="0" style="stop-color:#E70000"/>
	<stop  offset="2.919961e-02" style="stop-color:#EC1C00"/>
	<stop  offset="9.848512e-02" style="stop-color:#F65800"/>
	<stop  offset="0.1495" style="stop-color:#FD7E00"/>
	<stop  offset="0.1763" style="stop-color:#FF8C00"/>
	<stop  offset="0.2359" style="stop-color:#FFB400"/>
	<stop  offset="0.2936" style="stop-color:#FFD400"/>
	<stop  offset="0.3421" style="stop-color:#FFE800"/>
	<stop  offset="0.3752" style="stop-color:#FFEF00"/>
	<stop  offset="0.3952" style="stop-color:#F6EB01"/>
	<stop  offset="0.428" style="stop-color:#DDE004"/>
	<stop  offset="0.4696" style="stop-color:#B4CF09"/>
	<stop  offset="0.5184" style="stop-color:#7CB710"/>
	<stop  offset="0.5725" style="stop-color:#359818"/>
	<stop  offset="0.6101" style="stop-color:#00811F"/>
	<stop  offset="0.623" style="stop-color:#007B34"/>
	<stop  offset="0.6798" style="stop-color:#00648A"/>
	<stop  offset="0.7261" style="stop-color:#0053C9"/>
	<stop  offset="0.7597" style="stop-color:#0048F0"/>
	<stop  offset="0.7772" style="stop-color:#0044FF"/>
	<stop  offset="0.7969" style="stop-color:#0D3DF2"/>
	<stop  offset="0.8918" style="stop-color:#451CBA"/>
	<stop  offset="0.9623" style="stop-color:#690896"/>
	<stop  offset="1" style="stop-color:#760089"/>
</linearGradient>
<path class="st4" d="M4,134.9c31.5,5,70.7-9.1,108.8-22.9c41.8-15.2,84.6-30.7,120.6-22.3c1.4,0.3,2.6-0.9,2.1-2.3
	c-2.4-7.3-8.4-25.7-10.1-31.2c-0.3-1-1.1-1.7-2.1-1.8c-29-4.4-65.2,8.8-103,22.4C85.6,89.2,54,101.6,14.4,102
	c-1.2,0-2.2,0.7-2.5,1.8l-9.3,28.7C2.2,133.6,2.9,134.7,4,134.9z"/>
<linearGradient id="SVGID_4_" gradientUnits="userSpaceOnUse" x1="93.9012" y1="27.0231" x2="145.5338" y2="219.7184">
	<stop  offset="0" style="stop-color:#E70000"/>
	<stop  offset="2.919961e-02" style="stop-color:#EC1C00"/>
	<stop  offset="9.848512e-02" style="stop-color:#F65800"/>
	<stop  offset="0.1495" style="stop-color:#FD7E00"/>
	<stop  offset="0.1763" style="stop-color:#FF8C00"/>
	<stop  offset="0.2359" style="stop-color:#FFB400"/>
	<stop  offset="0.2936" style="stop-color:#FFD400"/>
	<stop  offset="0.3421" style="stop-color:#FFE800"/>
	<stop  offset="0.3752" style="stop-color:#FFEF00"/>
	<stop  offset="0.3952" style="stop-color:#F6EB01"/>
	<stop  offset="0.428" style="stop-color:#DDE004"/>
	<stop  offset="0.4696" style="stop-color:#B4CF09"/>
	<stop  offset="0.5184" style="stop-color:#7CB710"/>
	<stop  offset="0.5725" style="stop-color:#359818"/>
	<stop  offset="0.6101" style="stop-color:#00811F"/>
	<stop  offset="0.623" style="stop-color:#007B34"/>
	<stop  offset="0.6798" style="stop-color:#00648A"/>
	<stop  offset="0.7261" style="stop-color:#0053C9"/>
	<stop  offset="0.7597" style="stop-color:#0048F0"/>
	<stop  offset="0.7772" style="stop-color:#0044FF"/>
	<stop  offset="0.7969" style="stop-color:#0D3DF2"/>
	<stop  offset="0.8918" style="stop-color:#451CBA"/>
	<stop  offset="0.9623" style="stop-color:#690896"/>
	<stop  offset="1" style="stop-color:#760089"/>
</linearGradient>
<path class="st5" d="M256,150.9l-10.3-31.7c-0.2-0.6-0.6-1.2-1.2-1.5c-31.2-18.9-76.6-2.5-124.4,14.8
	C85.7,145,50.3,157.8,17.7,157.8c-4.2,0-10.6-0.7-15.5-1.3c-1.8-0.2-2.8,2.1-1.3,3.2l39.8,28.9c0.6,0.4,1.4,0.6,2.1,0.5
	c22.4-4.2,46.5-12.9,70.1-21.5C162.7,149.6,214,131,253.4,153C254.9,153.8,256.6,152.5,256,150.9z"/>
<linearGradient id="SVGID_5_" gradientUnits="userSpaceOnUse" x1="98.1023" y1="-11.1074" x2="162.5962" y2="229.5869">
	<stop  offset="0" style="stop-color:#E70000"/>
	<stop  offset="2.919961e-02" style="stop-color:#EC1C00"/>
	<stop  offset="9.848512e-02" style="stop-color:#F65800"/>
	<stop  offset="0.1495" style="stop-color:#FD7E00"/>
	<stop  offset="0.1763" style="stop-color:#FF8C00"/>
	<stop  offset="0.2359" style="stop-color:#FFB400"/>
	<stop  offset="0.2936" style="stop-color:#FFD400"/>
	<stop  offset="0.3421" style="stop-color:#FFE800"/>
	<stop  offset="0.3752" style="stop-color:#FFEF00"/>
	<stop  offset="0.3952" style="stop-color:#F6EB01"/>
	<stop  offset="0.428" style="stop-color:#DDE004"/>
	<stop  offset="0.4696" style="stop-color:#B4CF09"/>
	<stop  offset="0.5184" style="stop-color:#7CB710"/>
	<stop  offset="0.5725" style="stop-color:#359818"/>
	<stop  offset="0.6101" style="stop-color:#00811F"/>
	<stop  offset="0.623" style="stop-color:#007B34"/>
	<stop  offset="0.6798" style="stop-color:#00648A"/>
	<stop  offset="0.7261" style="stop-color:#0053C9"/>
	<stop  offset="0.7597" style="stop-color:#0048F0"/>
	<stop  offset="0.7772" style="stop-color:#0044FF"/>
	<stop  offset="0.7969" style="stop-color:#0D3DF2"/>
	<stop  offset="0.8918" style="stop-color:#451CBA"/>
	<stop  offset="0.9623" style="stop-color:#690896"/>
	<stop  offset="1" style="stop-color:#760089"/>
</linearGradient>
<path class="st6" d="M234.7,168.6c-30.5-10.8-71.5,4-114.3,19.6c-17.1,6.2-34.5,12.5-51.6,17.3c-1.4,0.4-1.8,2.3-0.6,3.2l56.5,41.1
	c0.9,0.7,2.2,0.7,3.2,0l107.2-77.9C236.3,170.9,236,169.1,234.7,168.6z"/>
</svg>
