<svg data-name="Layer 1" xmlns="http://www.w3.org/2000/svg" viewBox="0 0 101.476 199.362"><defs><style>.cls-1{fill:none;}.cls-2{fill:#fff;}</style></defs><title>PoSD_Logo-half-Icon</title><path class="cls-1" d="M-480.9743,400.9838c26.036,0,53.385-10.283,80.996-20.295q3.2024-1.1609,6.3843-2.3094V359.8157c-4.1187,1.4614-8.2367,2.9543-12.3423,4.4434-29.6455,10.7515-60.0219,22.7045-87.069,18.368a1.4649,1.4649,0,0,1-1.137-1.899l8.466-22.976a2.15,2.15,0,0,1,2.029-1.4709c31.66-.314,56.015-10.201,83.667-20.1461q3.2037-1.1523,6.3863-2.2948v-18.576c-.3309.1174-.6617.2327-.9926.3506a1.4005,1.4005,0,0,1-.97-.008c-22.522-8.522-46.468-16.93-69.346-15.461a1.4145,1.4145,0,0,1-1.455-1.853l6.884-21.184a2.1531,2.1531,0,0,1,1.9573-1.4782H-495.07V399.9924a1.4041,1.4041,0,0,1,.6787-.0865A129.1632,129.1632,0,0,0-480.9743,400.9838Zm2.0522-64.0181c1.322-4.071,4.377-13.473,5.441-16.747a2.129,2.129,0,0,1,1.562-1.431c13.807-3.082,30.136-.303,48.576,5.381a1.0991,1.0991,0,0,1,.041,2.08c-18.821,6.496-37.449,11.899-54.225,12.576A1.4176,1.4176,0,0,1-478.9221,336.9658Z" transform="translate(495.07 -275.6307)"/><path class="cls-1" d="M-393.802,474.4794a2.1611,2.1611,0,0,1-2.542,0l-44.243-32.871a1.4184,1.4184,0,0,1,.453-2.526c13.706-3.812,26.602-8.839,40.319-13.813q3.12-1.1313,6.221-2.2516v-18.562c-4.0645,1.4433-8.128,2.915-12.1793,4.384-18.917,6.861-37.193,13.822-55.13,17.17a2.1854,2.1854,0,0,1-1.686-.386l-32.4807-22.88v72.2493h101.476v-.6644Z" transform="translate(495.07 -275.6307)"/><path class="cls-2" d="M-477.5271,338.8248c16.776-.677,35.404-6.08,54.225-12.576a1.0991,1.0991,0,0,0-.041-2.08c-18.44-5.684-34.769-8.463-48.576-5.381a2.129,2.129,0,0,0-1.562,1.431c-1.064,3.274-4.119,12.676-5.441,16.747A1.4176,1.4176,0,0,0-477.5271,338.8248Z" transform="translate(495.07 -275.6307)"/><path class="cls-2" d="M-483.6473,356.2811a2.15,2.15,0,0,0-2.029,1.4709l-8.466,22.976a1.4649,1.4649,0,0,0,1.137,1.899c27.0472,4.3365,57.4235-7.6165,87.069-18.368,4.1056-1.4891,8.2236-2.9819,12.3423-4.4434V333.84q-3.1826,1.1408-6.3863,2.2948C-427.6323,346.08-451.9873,355.9671-483.6473,356.2811Z" transform="translate(495.07 -275.6307)"/><path class="cls-2" d="M-459.4736,277.1089l-6.884,21.184a1.4145,1.4145,0,0,0,1.455,1.853c22.878-1.469,46.824,6.939,69.346,15.461a1.4005,1.4005,0,0,0,.97.008c.3309-.1179.6617-.2332.9926-.3506V275.6307h-63.9224A2.1531,2.1531,0,0,0-459.4736,277.1089Z" transform="translate(495.07 -275.6307)"/><path class="cls-2" d="M-440.134,439.0824a1.4184,1.4184,0,0,0-.453,2.526l44.243,32.871a2.1611,2.1611,0,0,0,2.542,0l.208-.1511v-51.31q-3.1007,1.1183-6.221,2.2516C-413.532,430.2434-426.428,435.27-440.134,439.0824Z" transform="translate(495.07 -275.6307)"/><path class="cls-2" d="M-460.9033,426.01c17.937-3.348,36.213-10.309,55.13-17.17,4.0513-1.4691,8.1149-2.9407,12.1793-4.384V378.3793q-3.1822,1.1472-6.3843,2.3094c-27.611,10.012-54.96,20.295-80.996,20.295a129.1632,129.1632,0,0,1-13.417-1.078,1.4041,1.4041,0,0,0-.6787.0865v2.751l32.4807,22.88A2.1854,2.1854,0,0,0-460.9033,426.01Z" transform="translate(495.07 -275.6307)"/></svg>