<svg xmlns="http://www.w3.org/2000/svg" width="100" height="100" viewBox="0 0 100 100">
  <path d="M73.7206,13.4314H26.28125A4.78462,4.78462,0,0,0,21.49663,18.216V85.24989a4.78452,4.78452,0,0,0,4.78452,4.78452H73.7206a4.78277,4.78277,0,0,0,4.78277-4.78277V18.21417A4.78277,4.78277,0,0,0,73.7206,13.4314Zm-41.7189,61.91A1.78936,1.78936,0,1,1,33.79105,73.552,1.78938,1.78938,0,0,1,32.0017,75.3414Zm0-14.25163a1.78936,1.78936,0,1,1,1.78935-1.78936A1.78938,1.78938,0,0,1,32.0017,61.08977Zm0-14.25174a1.78936,1.78936,0,1,1,1.78935-1.78936A1.78938,1.78938,0,0,1,32.0017,46.838Zm0-14.25174a1.78936,1.78936,0,1,1,1.78935-1.78935A1.78938,1.78938,0,0,1,32.0017,32.58629ZM66.58886,75.3339H40.15392c-.72981,0-1.32188-.79826-1.32188-1.78186s.59207-1.78175,1.32188-1.78175H66.58886c.7296,0,1.32187.79827,1.32187,1.78175S67.31846,75.3339,66.58886,75.3339Zm0-14.25256H40.15392c-.72981,0-1.32188-.79662-1.32188-1.78186,0-.98348.59207-1.78,1.32188-1.78H66.58886c.7296,0,1.32187.79652,1.32187,1.78C67.91073,60.28472,67.31846,61.08134,66.58886,61.08134Zm0-14.25092H40.15392c-.72981,0-1.32188-.79826-1.32188-1.78175s.59207-1.78175,1.32188-1.78175H66.58886c.7296,0,1.32187.79826,1.32187,1.78175S67.31846,46.83042,66.58886,46.83042Zm0-14.25163H40.15392c-.72981,0-1.32188-.79826-1.32188-1.78175s.59207-1.78185,1.32188-1.78185H66.58886c.7296,0,1.32187.79826,1.32187,1.78185S67.31846,32.57879,66.58886,32.57879Z"/>
</svg>
