<svg xmlns="http://www.w3.org/2000/svg" width="100" height="100" viewBox="0 0 100 100">
  <path d="M88.40521,86.569l-1.88788-1.9384a3.94075,3.94075,0,0,0-5.571-.01177c-.01177.01347-.02524.02523-.03706.0387a1.31936,1.31936,0,0,1-1.866-.005l-.02189-.02189a3.94274,3.94274,0,0,0-5.57267-.01177c-.01007.01347-.02359.02523-.03536.0387a1.31936,1.31936,0,0,1-1.866-.005.26575.26575,0,0,1-.02189-.02189,3.9398,3.9398,0,0,0-4.25234-.87741l8.98132-22.81285,1.20243-3.04986V57.877a3.88722,3.88722,0,0,0-1.9384-4.91081l-6.13853-2.92194V35.77657a6.46327,6.46327,0,0,0-6.4619-6.4619V21.55942a2.59216,2.59216,0,0,0-2.5851-2.5851h-3.8768v-2.5851a5.16624,5.16624,0,0,0-5.16851-5.1685H48.70084a5.16835,5.16835,0,0,0-5.17015,5.1668v2.5868h-3.8768a2.5932,2.5932,0,0,0-2.5851,2.5851v7.75525a6.46323,6.46323,0,0,0-6.4619,6.4619V50.04424l-6.13853,2.92194a3.90015,3.90015,0,0,0-1.9401,4.92433l1.20243,3.04986.07751.1937,8.90551,22.60568a3.96023,3.96023,0,0,0-4.27763.91781,1.31936,1.31936,0,0,1-1.866-.005l-.02189-.02189a3.94069,3.94069,0,0,0-5.571-.01177c-.01352.01347-.02529.02523-.03706.0387a1.3214,1.3214,0,0,1-1.86768-.005l-.0202-.02189a3.96626,3.96626,0,0,0-5.58449-.01177L11.58161,86.569a1.29873,1.29873,0,0,0,1.8626,1.81038l1.88618-1.96533a1.31737,1.31737,0,0,1,1.86434.00508.138.138,0,0,1,.0219.02185,3.94071,3.94071,0,0,0,5.571.01182l.03875-.03875a1.3173,1.3173,0,0,1,1.86429.00508.13592.13592,0,0,1,.0219.02185,3.94276,3.94276,0,0,0,5.57267.01182c.01182-.01347.02359-.02529.03705-.03875a1.31883,1.31883,0,0,1,1.86429.00339.28637.28637,0,0,1,.0219.02354,3.77772,3.77772,0,0,0,3.37329,1.13679,3.84653,3.84653,0,0,0,2.23649-1.16372,1.32088,1.32088,0,0,1,1.866.00339.263.263,0,0,1,.0202.02354,3.94276,3.94276,0,0,0,5.57267.01182c.01347-.01347.02529-.02529.03706-.03875a1.31935,1.31935,0,0,1,1.866.00508.13592.13592,0,0,1,.0219.02185,3.9407,3.9407,0,0,0,5.571.01182l.03875-.03875a1.31731,1.31731,0,0,1,1.86429.00508.13592.13592,0,0,1,.0219.02185,2.88918,2.88918,0,0,0,.28462.27115,5.38053,5.38053,0,0,0,.645.43958,1.7461,1.7461,0,0,0,.34861.16673,3.71734,3.71734,0,0,0,1.514.31155,3.44443,3.44443,0,0,0,1.13674-.19371,3.08818,3.08818,0,0,0,.36208-.12966,1.75467,1.75467,0,0,0,.36038-.16842,1.726,1.726,0,0,0,.33854-.19366,3.44143,3.44143,0,0,0,.61971-.53049,1.2996,1.2996,0,0,1,1.83572-.01517c.0168.01856.03366.03536.05052.05392a4.411,4.411,0,0,0,.45129.40082,4.29105,4.29105,0,0,0,.56925.34861,3.043,3.043,0,0,0,.544.22059c.01177.01346.01177.01346.02529.01346h.02693a2.7032,2.7032,0,0,0,.54226.128.07944.07944,0,0,0,.05052.01346h.05392a3.80276,3.80276,0,0,0,3.3463-1.16372,1.31883,1.31883,0,0,1,1.86429.00339c.00674.00843.01516.01516.0219.02354a3.94276,3.94276,0,0,0,5.57267.01182c.01182-.01347.02359-.02529.03705-.03875a1.32089,1.32089,0,0,1,1.866.00339.24257.24257,0,0,0,.0202.02354,3.94282,3.94282,0,0,0,5.57272.01182c.01347-.01347.02354-.02529.03706-.03875a1.31113,1.31113,0,0,1,1.85416.00508l.00843.00838,1.88618,1.95187A1.29769,1.29769,0,1,0,88.417,86.5825l-.01177-.01347m-15.071-25.28L54.75014,55.09823a1.29491,1.29491,0,0,1,.81343-2.45877l.01346.00339,18.71372,6.24291Zm-22.04825-.95656a1.29255,1.29255,0,1,1-2.5851,0V44.28125l.73767-.34861c.02523-.01346.03705-.02693.064-.02693a1.28768,1.28768,0,0,1,.98184,0c.02524,0,.03871.01347.06569.02693l.73592.34861ZM48.327,36.69442a1.51425,1.51425,0,0,1-.42606.27111,1.21924,1.21924,0,0,1-.98354,0,1.3307,1.3307,0,0,1-.42606-.27111,1.31046,1.31046,0,0,1,0-1.83571,1.33087,1.33087,0,0,1,.42606-.27111,1.29207,1.29207,0,0,1,.98354,0,1.55337,1.55337,0,0,1,.42606.27111,1.31363,1.31363,0,0,1,0,1.83571m2.95895-.91785a1.27959,1.27959,0,1,1,.37559.91785,1.3541,1.3541,0,0,1-.37559-.91785M56.83,40.02891a1.30437,1.30437,0,0,1,1.17715-.34861.83883.83883,0,0,1,.2324.0775.99843.99843,0,0,1,.23241.11621l.19371.1549a1.3621,1.3621,0,0,1,.37554.91786,1.88631,1.88631,0,0,1-.02693.25764.7572.7572,0,0,1-.07751.23241.90777.90777,0,0,1-.1162.2324l-.1549.19535-.19371.155a1.00075,1.00075,0,0,1-.23241.1162.89783.89783,0,0,1-.2324.07745,1.67141,1.67141,0,0,1-.25934.02529,1.36322,1.36322,0,0,1-.91781-.3739l-.15326-.19535a.91489.91489,0,0,1-.1179-.2324.80382.80382,0,0,1-.07745-.23241,1.64868,1.64868,0,0,1-.02528-.25764,1.36012,1.36012,0,0,1,.37389-.91786m-.37389-4.25234a1.36012,1.36012,0,0,1,.37389-.91786,1.31935,1.31935,0,0,1,1.40955-.27111,1.528,1.528,0,0,1,.42612.27111,1.31046,1.31046,0,0,1,0,1.83571,1.49016,1.49016,0,0,1-.42612.27111,1.2987,1.2987,0,0,1-.49174.10274,1.27909,1.27909,0,0,1-1.2917-1.26642Zm5.1685,5.1702a1.37006,1.37006,0,0,1,.37554-.91786,1.49786,1.49786,0,0,1,.42776-.27111,1.29179,1.29179,0,1,1,0,2.37793,1.53561,1.53561,0,0,1-.42776-.27116,1.91613,1.91613,0,0,1-.1549-.19535.96619.96619,0,0,1-.11621-.2324.80392.80392,0,0,1-.0775-.23241,1.88474,1.88474,0,0,1-.02693-.25764m2.20956-4.25235a1.35294,1.35294,0,0,1-.91616.37385,1.284,1.284,0,0,1-.4901-.10274,1.49894,1.49894,0,0,1-.42776-.27111,1.31363,1.31363,0,0,1,0-1.83571,1.53705,1.53705,0,0,1,.42776-.27111,1.28984,1.28984,0,0,1,1.40626,2.10682m-20.67741,0a1.31145,1.31145,0,1,1,.3739-.91785,1.36036,1.36036,0,0,1-.3739.91785m.3739,4.25235a1.64869,1.64869,0,0,1-.02529.25764.85786.85786,0,0,1-.07745.23241.968.968,0,0,1-.1162.2324l-.155.19535a1.36012,1.36012,0,0,1-.9178.3739,1.672,1.672,0,0,1-.25939-.02529.85786.85786,0,0,1-.23241-.07745,1.00147,1.00147,0,0,1-.2324-.1162l-.19366-.155-.15495-.19535a.968.968,0,0,1-.11621-.2324.8621.8621,0,0,1-.07915-.23241,1.87319,1.87319,0,0,1-.02353-.25764,1.36007,1.36007,0,0,1,.37384-.91786l.19366-.1549a.99915.99915,0,0,1,.2324-.11621.80392.80392,0,0,1,.23241-.0775,1.3044,1.3044,0,0,1,1.17719.34861,1.36041,1.36041,0,0,1,.3739.91786M37.56053,34.5876a1.00039,1.00039,0,0,1,.23241.11621l.19365.1549a1.31044,1.31044,0,0,1,0,1.83571l-.19365.15491a1.00075,1.00075,0,0,1-.23241.1162.86914.86914,0,0,1-.2341.0775,1.65578,1.65578,0,0,1-.25764.02524,1.36036,1.36036,0,0,1-.91786-.37385,1.33872,1.33872,0,0,1-.37554-.91785,1.36205,1.36205,0,0,1,.37554-.91786,1.33845,1.33845,0,0,1,1.1755-.34861.81589.81589,0,0,1,.2341.0775m-1.4096,5.44131a1.47485,1.47485,0,0,1,.42776-.27111,1.28722,1.28722,0,0,1,.98184,0,1.46587,1.46587,0,0,1,.42606.27111,1.31038,1.31038,0,0,1,0,1.83566,1.50214,1.50214,0,0,1-.42606.27116,1.21521,1.21521,0,0,1-.98184,0,1.51141,1.51141,0,0,1-.42776-.27116,1.3104,1.3104,0,0,1,0-1.83566m7.37976-15.88444H56.45614a1.29255,1.29255,0,0,1,0,2.5851H43.53069a1.29255,1.29255,0,0,1,0-2.5851m2.5851-7.75525a2.59319,2.59319,0,0,1,2.58505-2.5851h2.5851a2.58955,2.58955,0,0,1,2.5834,2.5851v2.5851H46.11579ZM25.69608,58.88576,44.4098,52.64285a1.29575,1.29575,0,1,1,.83865,2.452l-.01012.00334L26.65094,61.289Z"/>
</svg>
