<svg xmlns="http://www.w3.org/2000/svg" width="100" height="100" viewBox="0 0 100 100">
  <path d="M73.9861,14.08236h-28.783a4.81643,4.81643,0,0,1,.36038,1.797V32.91064a5.37334,5.37334,0,0,1-5.39582,5.39582H23.01679a4.79281,4.79281,0,0,1-1.79861-.36038V81.11964a4.81167,4.81167,0,0,0,4.79635,4.798H73.9861a4.81167,4.81167,0,0,0,4.79635-4.798V18.87871a4.81027,4.81027,0,0,0-4.79635-4.79635M65.47134,70.80623h-30.942a1.79861,1.79861,0,0,1,0-3.59722h30.8224a1.8443,1.8443,0,0,1,1.79861,1.79861,1.74266,1.74266,0,0,1-1.679,1.79861m0-15.231h-30.942a1.79861,1.79861,0,0,1,0-3.59721h30.8224a1.84548,1.84548,0,0,1,1.79861,1.79861,1.74266,1.74266,0,0,1-1.679,1.7986M21.33783,33.6297a1.82963,1.82963,0,0,1,.36038-1.91985L38.72782,14.68193A1.65563,1.65563,0,0,1,40.646,14.3215a1.69485,1.69485,0,0,1,1.07949,1.67906V33.03018a1.84549,1.84549,0,0,1-1.79861,1.79861H23.01679a2.4806,2.4806,0,0,1-1.679-1.19909"/>
</svg>
