<svg xmlns="http://www.w3.org/2000/svg" width="100" height="100" viewBox="0 0 100 100">
  <path d="M37.58984,15.6334a1.90608,1.90608,0,0,0-1.90973,1.90977V23.2708H64.31989V17.54317a1.9061,1.9061,0,0,0-1.90983-1.90977Zm-18.136,11.457A8.572,8.572,0,0,0,10.86153,35.681v9.36693c8.73874,4.73571,20.56783,7.93549,33.79815,8.62094a5.74357,5.74357,0,0,1,10.71086,0C68.589,52.98,80.40641,49.78021,89.13847,45.04789V35.681a8.57173,8.57173,0,0,0-8.59062-8.59061ZM10.86153,49.344V75.77429a8.57238,8.57238,0,0,0,8.59226,8.59231H80.54785a8.57209,8.57209,0,0,0,8.59062-8.59231V49.344c-9.13962,4.55213-20.7987,7.49093-33.68036,8.14436a5.71726,5.71726,0,0,1-10.886,0c-12.89348-.65179-24.56264-3.58884-33.71058-8.14436"/>
</svg>
