<svg xmlns="http://www.w3.org/2000/svg" width="100" height="100" viewBox="0 0 100 100">
  <path d="M63.34615,14.2634A11.76725,11.76725,0,0,0,51.75965,26.239a15.31653,15.31653,0,0,0,.9212,4.805L63.373,53.573,74.06737,31.04394a15.25319,15.25319,0,0,0,.92118-4.805A11.81374,11.81374,0,0,0,63.34615,14.2634m.02684,6.25387a5.3606,5.3606,0,1,1-5.35948,5.35946A5.35945,5.35945,0,0,1,63.373,20.51727m-27.66719.8921L10.69041,28.5576v57.179L35.7058,78.58841Zm1.7865,0v57.179L62.50994,85.7366v-30.433L51.06206,31.54478A17.26073,17.26073,0,0,1,50,26.07352c0-.37563.02907-.72223.0559-1.08889Zm51.81729,0L76.74822,25.01145c.02684.35775.05367.69538.05367,1.06207a17.1979,17.1979,0,0,1-1.05982,5.47126L64.29419,55.30361v30.433l25.0154-7.14819Z"/>
</svg>
