<svg xmlns="http://www.w3.org/2000/svg" width="100" height="100" viewBox="0 0 100 100">
  <path d="M59.43181,24.15412a16.98709,16.98709,0,0,1,8.12746,12.48761,12.0044,12.0044,0,0,0,5.51374,1.4517,13.64965,13.64965,0,0,0,0-27.2993,13.96294,13.96294,0,0,0-13.6412,13.36M50.725,52.03274A13.64965,13.64965,0,1,0,37.08379,38.38309,13.62905,13.62905,0,0,0,50.725,52.03274m5.80509,1.162H44.91991A17.53515,17.53515,0,0,0,27.215,70.61843V84.8491h.29136l.87068.29135a79.962,79.962,0,0,0,23.79969,4.06542c12.77053,0,20.31531-3.77576,20.60665-4.06542l.87069-.29135h.28966V70.61843a17.4702,17.4702,0,0,0-17.4136-17.42371M78.87642,38.9641H67.55927A16.71441,16.71441,0,0,1,62.33519,50.581,21.2768,21.2768,0,0,1,77.13675,70.61843v4.35678a56.9321,56.9321,0,0,0,18.28258-3.77407l.87237-.58271h.28966v-14.229A17.53334,17.53334,0,0,0,78.87642,38.9641m-52.24079-.87067A15.06517,15.06517,0,0,0,33.89074,36.059a16.4686,16.4686,0,0,1,6.38611-10.74457v-.87067A13.64122,13.64122,0,1,0,26.63563,38.09343M38.82516,50.581A18.03086,18.03086,0,0,1,33.60107,38.9641H20.83054A17.46909,17.46909,0,0,0,3.41864,56.38946V70.90979l.869.29135a100.79117,100.79117,0,0,0,19.736,3.77407V70.61843A21.2768,21.2768,0,0,1,38.82516,50.581" fill-rule="evenodd"/>
</svg>
