<svg xmlns="http://www.w3.org/2000/svg" width="100" height="100" viewBox="0 0 100 100">
  <g>
    <path d="M56.68806,10.57205H42.48748m23.65385,0H26.00627a4.78865,4.78865,0,0,0-4.78865,4.78864v67.5721a4.79478,4.79478,0,0,0,4.79478,4.79478H60.23033C55.09888,82.22551,53.04739,73.7972,56.879,65.19651a17.28109,17.28109,0,0,1,7.48632-8.06345,20.43639,20.43639,0,0,1,14.77425-2.25793V15.37244a4.80039,4.80039,0,0,0-4.80039-4.80039H66.14133M46.86889,72.366H30.66511c-.9886.345-1.78984-.56956-1.78984-1.698s.8002-2.04309,1.78984-1.84694H46.86889c.98861-.19615,1.78984.71845,1.78984,1.84694S47.8575,72.71105,46.86889,72.366Zm0-12.99824H30.66511c-.9886.19143-1.78984-.72317-1.78984-1.85166s.8002-2.04309,1.78984-1.69332H46.86889c.98861-.34977,1.78984.56484,1.78984,1.69332S47.8575,59.5592,46.86889,59.36777Zm22.57173-14.1799H30.66511c-.9886.31668-1.78984-.59556-1.78984-1.72641,0-1.1273.8002-2.04072,1.78984-1.81857H69.44062c.98757-.22215,1.78984.69009,1.78984,1.81857C71.23046,44.59113,70.42923,45.50455,69.44062,45.18787Zm0-14.14181H30.66511c-.9886.31669-1.78984-.59555-1.78984-1.7264,0-1.1273.8002-2.04072,1.78984-1.81857H69.44062c.98757-.22215,1.78984.69009,1.78984,1.81857C71.23046,30.44933,70.42923,31.36275,69.44062,31.04606Z"/>
    <path d="M82.44562,60.015c-14.58835-7.35489-29.04471,7.1107-21.68752,21.69623a13.02029,13.02029,0,0,0,5.7351,5.73525c14.5918,7.3616,29.059-7.11064,21.689-21.69933A13.02518,13.02518,0,0,0,82.44562,60.015Zm-1.53125,17.0776H73.8221a1.77042,1.77042,0,0,1-.66352-.12992c-.00812-.00464-.01856-.00464-.02668-.00928a1.85954,1.85954,0,0,1-.25868-.14035c-.01508-.00812-.029-.01393-.04292-.02321a1.66166,1.66166,0,0,1-.16472-.13688c-.03132-.02667-.06844-.04872-.09744-.07888-.03016-.03016-.05336-.06728-.08-.0986a1.67771,1.67771,0,0,1-.13572-.16472c-.00928-.01276-.01392-.02668-.0232-.04176a1.64619,1.64619,0,0,1-.14036-.25984c-.00464-.00812-.0058-.01856-.00928-.02552a1.77956,1.77956,0,0,1-.12992-.66352V68.22787a1.77249,1.77249,0,1,1,3.545,0v5.3198h5.31978a1.77249,1.77249,0,1,1,0,3.545Z"/>
  </g>
</svg>
