<svg xmlns="http://www.w3.org/2000/svg" width="100" height="100" viewBox="0 0 100 100">
  <path d="M4.4806,66.51675h6.1457a10.82407,10.82407,0,0,0,21.00017,0H65.55668a10.82315,10.82315,0,0,0,20.99874,0h6.40226A7.104,7.104,0,0,0,100,59.47439V43.08456a36.92545,36.92545,0,0,1-.25655-.2552l-.12689-.12832-.12832-.12828-.12831-.12831-.12824-.12689c-3.84195-2.817-23.17568-17.02994-29.44961-17.02994H55.31248A32.33557,32.33557,0,0,0,32.2652,34.7634l-8.32256,7.16925H18.56533A18.57918,18.57918,0,0,0,0,60.49937V62.163a4.512,4.512,0,0,0,4.4806,4.35371m71.83205,4.35371A7.04237,7.04237,0,1,1,83.355,63.8281a7.10406,7.10406,0,0,1-7.04232,7.04236M70.03728,28.99983c3.32877,0,14.08474,6.91544,22.40721,12.80593H78.48807L69.01369,28.99983Zm-15.87672,0H64.27645l9.47582,12.80593H54.16056ZM34.82692,37.45066h0a28.89378,28.89378,0,0,1,15.49177-8.06592V41.6761H29.83314ZM21.254,56.78573a7.04237,7.04237,0,1,1-7.041,7.04237,7.10494,7.10494,0,0,1,7.041-7.04237"/>
</svg>
