<svg xmlns="http://www.w3.org/2000/svg" width="100" height="100" viewBox="0 0 100 100">
  <path d="M25.06015,11.69852a3.55593,3.55593,0,0,0-3.56355,3.56186V84.73793a3.55632,3.55632,0,0,0,3.56355,3.56355H74.94154a3.55488,3.55488,0,0,0,3.56186-3.56355V15.26038a3.55449,3.55449,0,0,0-3.56186-3.56186Zm34.57123,7.98765a1.78184,1.78184,0,0,1,1.50222,2.9792L48.66448,36.91623a1.78271,1.78271,0,0,1-2.39478.25091l-7.12541-5.34366a1.78175,1.78175,0,0,1,2.08493-2.88992.213.213,0,0,0,.032.0219l5.8169,4.37193L58.46262,20.29921a1.78343,1.78343,0,0,1,1.16876-.613M32.18561,46.43642H67.81439a1.78178,1.78178,0,1,1,0,3.56355H32.18561a1.78178,1.78178,0,1,1,0-3.56355m0,14.25256H67.81439a1.78093,1.78093,0,1,1,0,3.56186H32.18561a1.78093,1.78093,0,1,1,0-3.56186m0,14.25082H67.81439a1.7818,1.7818,0,1,1,0,3.5636H32.18561a1.7818,1.7818,0,1,1,0-3.5636"/>
</svg>
