<svg xmlns="http://www.w3.org/2000/svg" width="100" height="100" viewBox="0 0 100 100">
  <path d="M50.01849,10.57205c-23.2656,0-42.10742,17.02734-42.10742,38.0203a35.27869,35.27869,0,0,0,6.66364,20.53,8.49524,8.49524,0,0,1,.6691,1.00546,5.14516,5.14516,0,0,1,.67312,2.49263c0,.34139-3.92367,14.2915-3.92367,14.2915a2.05739,2.05739,0,0,0,1.66491,2.45984,1.6986,1.6986,0,0,0,.52868.05612,3.28293,3.28293,0,0,0,.80912-.12161l.35527-.14967,11.09748-5.41536c.19634-.09827,1.9735-.86987,2.19318-.95869a6.68922,6.68922,0,0,1,2.45994-.449,6.80887,6.80887,0,0,1,2.25876.36946c.01891,0,.04225,0,.04225.02343.10743.05613.21968.07484.33193.12161,5.06472,1.94544,10.61588,2.5393,16.4708,2.5393,23.25152,0,41.88332-15.79264,41.88332-36.7857C92.11666,27.59939,73.27484,10.57205,50.01849,10.57205Zm-.0181,61.43557A5.40063,5.40063,0,1,1,55.40147,66.607,5.40065,5.40065,0,0,1,50.00039,72.00762ZM55.863,30.25949,53.78,54.72469a3.78044,3.78044,0,0,1-7.56087,0l-2.08173-24.4652a5.938,5.938,0,1,1,11.804-.91915A5.8979,5.8979,0,0,1,55.863,30.25949Z"/>
</svg>
