<svg xmlns="http://www.w3.org/2000/svg" width="100" height="100" viewBox="0 0 100 100">
  <g>
    <path d="M60.3756,14.59924H56.82933a1.6887,1.6887,0,0,1-1.65525-1.73484,4.9,4.9,0,0,0-1.35147-3.36235V9.49551a4.49237,4.49237,0,0,0-6.52786.00654,4.9006,4.9006,0,0,0-1.35254,3.36235,1.68861,1.68861,0,0,1-1.655,1.73484h-4.6627V18.9679H60.3756Z"/>
    <path d="M75.78889,18.9679H63.65471v3.56126H36.34535V18.9679H24.21291a3.54036,3.54036,0,0,0-3.68466,3.39148V88.51374a3.54064,3.54064,0,0,0,3.68466,3.39308h51.576a3.539,3.539,0,0,0,3.68286-3.39308V22.35938A3.53877,3.53877,0,0,0,75.78889,18.9679ZM36.70947,44.07422a1.685,1.685,0,0,1,2.37545-.20531l8.816,7.4267L60.428,36.50006a1.69056,1.69056,0,0,1,2.58083,2.18433L49.39169,54.761a1.68684,1.68684,0,0,1-2.37218.201L36.91479,46.44966A1.68522,1.68522,0,0,1,36.70947,44.07422ZM66.78433,82.31345H32.93289a1.63825,1.63825,0,0,1,0-3.27649H66.78433a1.63825,1.63825,0,1,1,0,3.27649Zm0-12.01381H32.93289a1.63825,1.63825,0,0,1,0-3.2765H66.78433a1.63825,1.63825,0,1,1,0,3.2765Z"/>
  </g>
</svg>
