<svg xmlns="http://www.w3.org/2000/svg" width="100" height="100" viewBox="0 0 100 100">
  <g>
    <path d="M65.97071,21.08541H61.61984v5.77A4.61378,4.61378,0,0,1,58.42962,31.319a4.70286,4.70286,0,0,1-6.263-4.21773V21.08541H35.62336V26.8567a4.61243,4.61243,0,0,1-3.19019,4.46249,4.70335,4.70335,0,0,1-6.26308-4.218V21.08541h-3.168A8.64856,8.64856,0,0,0,14.3535,29.734v45.332a8.64738,8.64738,0,0,0,8.64738,8.64738h32.708a19.83374,19.83374,0,0,1,9.49972-32.74183,19.65856,19.65856,0,0,1,9.40952-.11061V29.73278A8.64738,8.64738,0,0,0,65.97071,21.08541ZM39.57837,68.35175H21.08187a1.61594,1.61594,0,0,1-2.04309-1.698,1.77908,1.77908,0,0,1,2.04309-1.84693h18.4965a1.77959,1.77959,0,0,1,2.04309,1.84693A1.61594,1.61594,0,0,1,39.57837,68.35175Zm0-12.99825H21.08187a1.78527,1.78527,0,0,1-2.04309-1.85165,1.61084,1.61084,0,0,1,2.04309-1.69332h18.4965a1.61121,1.61121,0,0,1,2.04309,1.69332A1.78527,1.78527,0,0,1,39.57837,55.3535ZM67.68648,41.1736H21.08187a1.64393,1.64393,0,0,1-2.04309-1.7264,1.74733,1.74733,0,0,1,2.04309-1.81858H67.68648a1.74774,1.74774,0,0,1,2.04308,1.81858A1.6444,1.6444,0,0,1,67.68648,41.1736Z"/>
    <path d="M33.26,26.11573c.67473,1.45934-.5093,2.64337-1.96864,2.64337h0a2.82457,2.82457,0,0,1-2.758-2.64337V17.22847a2.82442,2.82442,0,0,1,2.758-2.64219h0c1.45935,0,2.64337,1.18284,1.96864,2.64219Z"/>
    <path d="M59.25653,26.11573c.86261,1.45934-.32023,2.64337-1.77958,2.64337h0a3.15993,3.15993,0,0,1-2.94706-2.64337V17.22847A3.16,3.16,0,0,1,57.477,14.58628h0c1.45935,0,2.64219,1.18284,1.77958,2.64219Z"/>
    <path d="M69.95053,54.02177a15.696,15.696,0,1,0,15.696,15.69716A15.696,15.696,0,0,0,69.95053,54.02177Zm6.44235,19.05661H69.30061a1.77046,1.77046,0,0,1-.66352-.12992c-.00812-.00464-.01856-.00464-.02668-.00928a1.85913,1.85913,0,0,1-.25868-.14036c-.01508-.00812-.029-.01392-.04292-.0232a1.66155,1.66155,0,0,1-.16471-.13688c-.03132-.02668-.06844-.04872-.09744-.07888-.03017-.03016-.05337-.06728-.08-.0986a1.67638,1.67638,0,0,1-.13573-.16472c-.00928-.01276-.01392-.02668-.0232-.04176a1.64782,1.64782,0,0,1-.14036-.25984c-.00464-.00812-.0058-.01856-.00927-.02552a1.77956,1.77956,0,0,1-.12992-.66352V64.21361a1.77249,1.77249,0,1,1,3.545,0V69.5334h5.31978a1.77249,1.77249,0,1,1,0,3.545Z"/>
  </g>
</svg>
