<svg xmlns="http://www.w3.org/2000/svg" width="100" height="100" viewBox="0 0 100 100">
  <g>
    <path d="M23.01671,34.82881H39.92679A1.84563,1.84563,0,0,0,41.7256,33.0302V16.00059a1.69493,1.69493,0,0,0-1.0797-1.67907,1.65555,1.65555,0,0,0-1.91805.36038l-17.02972,17.028a1.82972,1.82972,0,0,0-.36017,1.91979A2.47981,2.47981,0,0,0,23.01671,34.82881Z"/>
    <path d="M36.67206,56.12131H33.58181V60.1819h3.15111c1.5147,0,2.38306-.80752,2.38306-1.99987v-.03947C39.116,56.80876,38.18677,56.12131,36.67206,56.12131Z"/>
    <path d="M63.85285,56.12131H61.45V60.445H63.9137a2.19007,2.19007,0,0,0,2.4653-2.14131v-.04111C66.379,56.86961,65.40867,56.12131,63.85285,56.12131Z"/>
    <path d="M73.98623,14.08233H45.20317a4.81451,4.81451,0,0,1,.36038,1.797V32.91066a5.37336,5.37336,0,0,1-5.39583,5.39582h-17.151a4.79118,4.79118,0,0,1-1.7984-.36038V81.11967a4.81157,4.81157,0,0,0,4.79615,4.798H73.98623a4.81157,4.81157,0,0,0,4.79615-4.798v-62.241A4.81016,4.81016,0,0,0,73.98623,14.08233ZM39.05513,67.4528l-3.0294-4.52437H33.58181V67.4528h-3.11v-14.138h6.4634A5.63572,5.63572,0,0,1,41.055,54.748a4.43958,4.43958,0,0,1,1.21209,3.2317v.04112a4.3898,4.3898,0,0,1-3.0294,4.38293l3.45372,5.049ZM55.84844,56.14269H48.19269v3.00967H54.939v2.82712H48.19269V67.4528h-3.11v-14.138H55.84844Zm13.68,2.10019c0,3.27281-2.54424,4.96842-5.71508,4.96842H61.45v4.2415h-3.11v-14.138H64.116c3.37313,0,5.41247,1.99905,5.41247,4.887Z"/>
  </g>
</svg>
