<svg xmlns="http://www.w3.org/2000/svg" width="100" height="100" viewBox="0 0 100 100">
  <g>
    <path d="M60.27929,14.92782H56.76594a1.673,1.673,0,0,1-1.63988-1.71873,4.85459,4.85459,0,0,0-1.33893-3.33115V9.87147a4.45067,4.45067,0,0,0-6.46727.00647,4.85515,4.85515,0,0,0-1.34,3.33115,1.67293,1.67293,0,0,1-1.63969,1.71873H39.72077v4.32811H60.27929Z"/>
    <path d="M75.54952,19.25593H63.528v3.52821H36.47211V19.25593H24.45226a3.50751,3.50751,0,0,0-3.65046,3.36V88.15626a3.50779,3.50779,0,0,0,3.65046,3.36159H75.54952a3.50621,3.50621,0,0,0,3.64868-3.36159V22.61594A3.50593,3.50593,0,0,0,75.54952,19.25593ZM39.54279,74.8373l-3.24285,3.82632a1.505,1.505,0,0,1-2.11769.1797L31.77556,76.8169a1.50661,1.50661,0,0,1,1.9405-2.30519l1.25281,1.05746,2.2688-2.68281a1.50995,1.50995,0,0,1,2.30512,1.95094Zm0-12.1067-3.24285,3.82375a1.50507,1.50507,0,0,1-2.11769.1797l-2.40669-2.02643a1.5066,1.5066,0,0,1,1.9405-2.30518l1.25281,1.05746,2.2688-2.68018a1.50993,1.50993,0,1,1,2.30512,1.95088Zm0-12.10657-3.24285,3.82362a1.505,1.505,0,0,1-2.11769.17976l-2.40669-2.02385a1.50658,1.50658,0,1,1,1.9405-2.30512l1.25281,1.05489,2.2688-2.68031a1.51,1.51,0,0,1,2.30512,1.951Zm0-12.1067-3.24285,3.82632a1.50513,1.50513,0,0,1-2.11769.17977l-2.40669-2.02656a1.50658,1.50658,0,1,1,1.9405-2.30512l1.25281,1.05489,2.2688-2.68031a1.51,1.51,0,0,1,2.30512,1.951ZM67.24643,77.291H45.93992a1.51335,1.51335,0,1,1,0-3.0267H67.24643a1.51335,1.51335,0,0,1,0,3.0267Zm0-12.10928H45.93992a1.51335,1.51335,0,1,1,0-3.02669H67.24643a1.51335,1.51335,0,0,1,0,3.02669Zm0-12.1067H45.93992a1.51335,1.51335,0,1,1,0-3.02669H67.24643a1.51335,1.51335,0,0,1,0,3.02669Zm0-12.10406H45.93992a1.51332,1.51332,0,1,1,0-3.02663H67.24643a1.51332,1.51332,0,0,1,0,3.02663Z"/>
  </g>
</svg>
