<svg xmlns="http://www.w3.org/2000/svg" width="100" height="100" viewBox="0 0 100 100">
  <g>
    <path d="M29.75714,46.89265a5.87113,5.87113,0,0,0-2.30554-.4008,6.81407,6.81407,0,1,0,6.7145,7.61551h.10105V37.47181h6.01222V32.96347H29.75714Z"/>
    <path d="M82.76923,49.29857l9.42082-9.42085L89.08458,36.8716l-4.91251-4.91084L81.4674,29.25609l-1.70429,1.70263a6.37488,6.37488,0,0,1-1.3018,1.002,7.51013,7.51013,0,0,1-7.917,0,6.43081,6.43081,0,0,1-1.30349-1.002,7.298,7.298,0,0,1-1.10139-8.919,8.36427,8.36427,0,0,1,1.10139-1.50391l1.70432-1.70432-1.60328-1.60326-9.3198-9.41917L53.20654,14.623V9.61275H38.17427v2.40491A7.32891,7.32891,0,0,1,34.668,18.232a7.43219,7.43219,0,0,1-11.32558-6.31371V9.61275H7.81V83.47064H23.34239V81.06576a7.39873,7.39873,0,0,1,7.41679-7.4151,10.141,10.141,0,0,1,2.40488.39913,7.298,7.298,0,0,1-2.10512,5.71414l-1.70263,1.70432L39.97794,92.19092l8.71856-8.72028h4.60938V78.86126L80.1656,52.00493l-3.609-3.508,2.70467-2.70634ZM48.29737,52.40573V78.66085H42.68428a12.274,12.274,0,0,0-24.05231,0H12.61972V14.42254H18.632a12.27355,12.27355,0,0,0,24.05231,0h5.61309Zm9.51855-27.9611,3.609,3.50629-2.70636,2.708-3.60734-3.508ZM53.20654,19.7342l1.10308,1.10309-1.10308,1.10138Zm9.02,30.76682-3.90879-3.90879-5.11125,5.11125V45.7906l5.11125-5.11125,6.81555,6.81555ZM65.83392,37.7726l-3.60734-3.508L64.93292,31.56l3.60567,3.508Zm7.21638,7.1153-3.609-3.50627,2.70634-2.70636,3.60734,3.508Z"/>
  </g>
</svg>
