<svg xmlns="http://www.w3.org/2000/svg" width="100" height="100" viewBox="0 0 100 100">
  <g>
    <path d="M35.04285,40.90835H51.06817v-6.837H35.04285Zm13.0139-4.83313h2.04884v2.94733H48.05675Zm-3.97737,0h1.9274v2.94733h-1.9274Zm-3.97626,0h1.92853v2.94733H40.10312Zm-3.97513,0h1.9274v2.94733H36.128Z" fill-rule="evenodd"/>
    <path d="M58.12,31.93365V24.88188H41.881v7.05177H58.12Zm-3.053-4.98491h1.95327v3.03954H55.06691Zm-10.134,3.03954H42.97961V26.94874h1.95326Zm4.0291,0H47.00871V26.94874H48.962Zm2.07584-3.03954h1.95327v3.03954H51.03781Z" fill-rule="evenodd"/>
    <path d="M41.881,43.0449v7.05063H58.12V43.0449H41.881Zm3.0519,4.98381H42.97961V44.98917h1.95326Zm4.0291,0H47.00871V44.98917H48.962Zm6.10494-3.03954h1.95327v3.03954H55.06691ZM52.9922,48.02871H51.03894V44.98917H52.9922Z" fill-rule="evenodd"/>
    <path d="M39.95694,31.93365V24.88188H24.14527v7.05177H39.95694Zm-2.99456-4.98491h2.03648v3.03954H36.96238Zm-9.94175,3.03954H25.10334V26.94874h1.91729Zm3.95263,0H29.056V26.94874h1.91728Zm2.03649-3.03954H34.9259v3.03954H33.00975Z" fill-rule="evenodd"/>
    <path d="M33.12,40.90835v-6.837H17.09462v6.837H33.12Zm-3.035-4.83313h2.06347v2.94733H30.08491Zm-4.00662,0h2.06347v2.94733H26.07829Zm-6.07008,2.94733h-1.942V36.07522h1.942Zm2.06347-2.94733h2.06346v2.94733H22.07168Z" fill-rule="evenodd"/>
    <path d="M52.9922,40.90835H69.01752v-6.837H52.9922ZM66.005,36.07522h1.92741v2.94733H66.005Zm-3.97624,0h1.92741v2.94733H62.02873Zm-3.97626,0H59.981v2.94733H58.05247Zm-3.97624,0h1.9274v2.94733h-1.9274Z" fill-rule="evenodd"/>
    <path d="M60.04285,50.09553H76.06818V43.0449H60.04285Zm13.01389-5.10636h1.92741v3.03954H73.05674Zm-3.97736,0h1.92741v3.03954H69.07938Zm-3.97626,0h1.92852v3.03954H65.10312Zm-3.97512,0h1.9274v3.03954H61.128Z" fill-rule="evenodd"/>
    <path d="M100,59.87548a1.37259,1.37259,0,0,0-1.24932-.75116,8.85787,8.85787,0,0,0-2.25014,1.00082A10.70992,10.70992,0,0,1,93,61.12707a6.14341,6.14341,0,0,1-2.75053-1.00193h-.24964a8.54967,8.54967,0,0,0,3.99985-7.01131V48.10641h-11.75l-4.49914,3.75584a.91667.91667,0,0,1-.75005.25079H28.50059a.91555.91555,0,0,1-.75-.25079l-2.00049-1.75309-1.74973-1.50234L22.001,47.10448H3.24983L11.75,59.374c-.75.25076-1.24932.50151-1.99937.75117a6.48213,6.48213,0,0,1-2.5009,1.00193,10.44531,10.44531,0,0,1-3.7491-1.00193,8.85781,8.85781,0,0,0-2.25013-1.00082A1.37425,1.37425,0,0,0,0,59.87548a1.37768,1.37768,0,0,0,.75005,1.25159c.50041.25075,1.25045.50154,1.74973.75116A14.75989,14.75989,0,0,0,7.24969,63.131a9.26906,9.26906,0,0,0,3.50059-1.002,5.27864,5.27864,0,0,1,2.49977-1.00192A5.28235,5.28235,0,0,1,15.751,62.129a9.25577,9.25577,0,0,0,3.7491,1.002,9.269,9.269,0,0,0,3.50058-1.002,5.27868,5.27868,0,0,1,2.49978-1.00192A5.27864,5.27864,0,0,1,28.00018,62.129a9.26592,9.26592,0,0,0,3.75023,1.002,9.26385,9.26385,0,0,0,3.49946-1.002,5.27864,5.27864,0,0,1,2.49977-1.00192,5.28235,5.28235,0,0,1,2.5009,1.00192,9.26106,9.26106,0,0,0,3.75023,1.002,9.26375,9.26375,0,0,0,3.49946-1.002A5.27868,5.27868,0,0,1,50,61.12707a5.28243,5.28243,0,0,1,2.5009,1.00192A9.25573,9.25573,0,0,0,56.25,63.131a9.269,9.269,0,0,0,3.50058-1.002,5.27417,5.27417,0,0,1,2.49978-1.00192A5.27861,5.27861,0,0,1,64.75013,62.129a9.266,9.266,0,0,0,3.75024,1.002,9.2581,9.2581,0,0,0,3.49945-1.002,5.28235,5.28235,0,0,1,2.5009-1.00192A5.27864,5.27864,0,0,1,77.00049,62.129a9.26106,9.26106,0,0,0,3.75023,1.002,9.26956,9.26956,0,0,0,3.49946-1.002,6.29879,6.29879,0,0,1,1.74973-1.00192v0h.75A5.27868,5.27868,0,0,1,89.24973,62.129,9.266,9.266,0,0,0,93,63.131c1.50009,0,3.00018-.75117,4.50027-1.25272.5004-.24962,1.25045-.50041,1.74973-.75116a1.37565,1.37565,0,0,0,.75-1.25159M13.50082,54.11579a2.50371,2.50371,0,0,1,0-5.00742,2.50371,2.50371,0,0,1,0,5.00742m5.99923,7.01128h0Zm12.25036,0h0Zm52.74941-7.01128a1.50236,1.50236,0,1,1,1.50009-1.50237,1.6144,1.6144,0,0,1-1.50009,1.50237m3.5006-1.50237a1.49952,1.49952,0,1,1,1.49895,1.50237,1.61423,1.61423,0,0,1-1.49895-1.50237" fill-rule="evenodd"/>
    <path d="M92.3436,67.08367a6.06337,6.06337,0,0,1-2.74155-1.01541A8.01738,8.01738,0,0,0,86.11158,65.054a8.01293,8.01293,0,0,0-3.49047,1.01431,6.07278,6.07278,0,0,1-2.74153,1.01541,6.40237,6.40237,0,0,1-2.493-1.01541A8.01277,8.01277,0,0,0,73.89607,65.054a8.008,8.008,0,0,0-3.48933,1.01431,6.07215,6.07215,0,0,1-2.74267,1.01541,6.41558,6.41558,0,0,1-2.493-1.01541A8.01293,8.01293,0,0,0,61.68058,65.054a8.01254,8.01254,0,0,0-3.48934,1.01431,6.07211,6.07211,0,0,1-2.74267,1.01541,6.40515,6.40515,0,0,1-2.4919-1.01541A8.01281,8.01281,0,0,0,49.4662,65.054a8.01289,8.01289,0,0,0-3.49046,1.01431,6.07277,6.07277,0,0,1-2.74154,1.01541,6.41562,6.41562,0,0,1-2.493-1.01541A8.01281,8.01281,0,0,0,37.25071,65.054a8.01246,8.01246,0,0,0-3.48934,1.01431,6.07219,6.07219,0,0,1-2.74267,1.01541,6.41556,6.41556,0,0,1-2.493-1.01541A8.01246,8.01246,0,0,0,25.03633,65.054a8.01281,8.01281,0,0,0-3.49046,1.01431,6.07285,6.07285,0,0,1-2.74155,1.01541,6.4023,6.4023,0,0,1-2.493-1.01541A8.01285,8.01285,0,0,0,12.82083,65.054a8.01281,8.01281,0,0,0-3.49046,1.01431,7.31317,7.31317,0,0,1-2.74155,1.01541A1.14717,1.14717,0,0,0,5.34174,68.098a1.08248,1.08248,0,0,0,.99744,1.01545A10.28944,10.28944,0,0,0,10.32781,68.098a4.391,4.391,0,0,1,2.493-1.01431,5.21435,5.21435,0,0,1,2.493,1.01431,9.1039,9.1039,0,0,0,3.49046,1.01545A7.10357,7.10357,0,0,0,22.29367,68.098a7.31283,7.31283,0,0,1,2.74266-1.01431A5.21069,5.21069,0,0,1,27.52824,68.098a9.10945,9.10945,0,0,0,3.49046,1.01545A7.108,7.108,0,0,0,34.50917,68.098a7.31536,7.31536,0,0,1,2.74154-1.01431,5.21438,5.21438,0,0,1,2.493,1.01431,9.1095,9.1095,0,0,0,3.49046,1.01545A7.10353,7.10353,0,0,0,46.72354,68.098a7.31982,7.31982,0,0,1,2.74266-1.01431,5.21438,5.21438,0,0,1,2.493,1.01431,9.10438,9.10438,0,0,0,3.48933,1.01545A7.10436,7.10436,0,0,0,58.939,68.098a7.31542,7.31542,0,0,1,2.74154-1.01431,5.21427,5.21427,0,0,1,2.493,1.01431,9.10965,9.10965,0,0,0,3.49047,1.01545A7.108,7.108,0,0,0,71.15454,68.098a7.30864,7.30864,0,0,1,2.74153-1.01431,5.21434,5.21434,0,0,1,2.493,1.01431,9.10389,9.10389,0,0,0,3.49047,1.01545A7.1036,7.1036,0,0,0,83.36892,68.098a7.31289,7.31289,0,0,1,2.74266-1.01431,5.21427,5.21427,0,0,1,2.493,1.01431,10.28944,10.28944,0,0,0,3.98862,1.01545c.49817,0,.99631-.50718.74781-1.01545a1.0823,1.0823,0,0,0-.99743-1.01431" fill-rule="evenodd"/>
    <path d="M80.19859,73.16028h0a6.30664,6.30664,0,0,1-2.74492-.9547,8.40042,8.40042,0,0,0-3.49384-.9558,8.39106,8.39106,0,0,0-3.49385.9558,6.31571,6.31571,0,0,1-2.746.9547,6.64463,6.64463,0,0,1-2.49529-.9547,8.39561,8.39561,0,0,0-3.49383-.9558,8.391,8.391,0,0,0-3.49384.9558,6.31574,6.31574,0,0,1-2.746.9547,6.65158,6.65158,0,0,1-2.49528-.9547,8.39565,8.39565,0,0,0-3.49384-.9558,8.39565,8.39565,0,0,0-3.49384.9558,6.30656,6.30656,0,0,1-2.74491.9547,6.63774,6.63774,0,0,1-2.49528-.9547,8.40075,8.40075,0,0,0-3.495-.9558,8.40029,8.40029,0,0,0-3.49383.9558,6.30664,6.30664,0,0,1-2.74492.9547,6.63768,6.63768,0,0,1-2.49528-.9547,8.40038,8.40038,0,0,0-3.49384-.9558,8.39088,8.39088,0,0,0-3.49383.9558,4.94374,4.94374,0,0,1-2.99569.9547.871.871,0,0,0-1.24708.71634,1.30467,1.30467,0,0,0,.7478,1.1942,7.403,7.403,0,0,0,4.24276-.9547,6.31851,6.31851,0,0,1,2.746-.95584,5.40942,5.40942,0,0,1,2.49528.95584,9.58726,9.58726,0,0,0,3.49384.9547,7.46028,7.46028,0,0,0,3.49384-.9547,7.62619,7.62619,0,0,1,2.74491-.95584,5.4087,5.4087,0,0,1,2.4964.95584,9.58133,9.58133,0,0,0,3.49384.9547,7.46794,7.46794,0,0,0,3.49383-.9547,7.61221,7.61221,0,0,1,2.74492-.95584,5.40022,5.40022,0,0,1,2.49528.95584,9.59325,9.59325,0,0,0,3.49384.9547,7.46888,7.46888,0,0,0,3.495-.9547,7.61221,7.61221,0,0,1,2.74492-.95584,5.40478,5.40478,0,0,1,2.49527.95584,9.58731,9.58731,0,0,0,3.49385.9547,7.46034,7.46034,0,0,0,3.49383-.9547,7.62381,7.62381,0,0,1,2.746-.95584,5.40938,5.40938,0,0,1,2.49527.95584,8.56665,8.56665,0,0,0,3.74349.9547.95621.95621,0,1,0,0-1.91054" fill-rule="evenodd"/>
    <path d="M26.54159,48.02871l2.276,2.06682H39.95694V43.0449H24.14527v3.03841l.95808.72979V44.98917h1.91728v3.03954Zm10.42079-3.03954h2.03648v3.03954H36.96238Zm-3.95263,0H34.9259v3.03954H33.00975Zm-3.95264,0h1.91728v3.03954H29.05711Z" fill-rule="evenodd"/>
    <polygon points="22.009 43.045 16.02 43.045 6.197 43.045 6.197 44.968 22.009 44.968 22.009 43.045" fill-rule="evenodd"/>
    <path d="M78.98131,35.994H81.95V46.03588H92.83634V44.0275H87.88851a1.0043,1.0043,0,0,1,0-2.00838h4.94783V40.01078H87.88851a1.0043,1.0043,0,0,1,0-2.00838h4.94783V35.994H95.805a1.00428,1.00428,0,0,0,0-2.00834H89.86765L84.9187,25.95107H81.95v8.03461h-2.9687a1.00428,1.00428,0,0,0,0,2.00834" fill-rule="evenodd"/>
  </g>
</svg>
