<svg xmlns="http://www.w3.org/2000/svg" width="100" height="100" viewBox="0 0 100 100">
  <g>
    <path d="M50.01156,29.66159a1.84965,1.84965,0,0,0,1.8755-1.82317c.0002-.01768.0002-.03485,0-.05242V20.43862a1.84956,1.84956,0,0,0-1.8204-1.87827q-.029-.00061-.05787,0a1.84958,1.84958,0,0,0-1.82051,1.87827V27.786A1.84975,1.84975,0,0,0,50.01156,29.66159Z"/>
    <path d="M73.50622,36.55115c.01809-.01768.03577-.03526.05314-.05335l5.50478-5.512a1.84929,1.84929,0,1,0-2.61507-2.61517L70.9443,33.88274a1.84958,1.84958,0,0,0,2.56192,2.66841Z"/>
    <path d="M24.6666,36.4978A1.84951,1.84951,0,1,0,27.3349,33.936c-.01737-.01809-.03515-.03608-.05324-.05324l-5.50478-5.51208a1.84942,1.84942,0,1,0-2.61506,2.61517Z"/>
    <path d="M85.15235,55.54785c.01747.00041.03484.00041.05232,0h7.33967a1.84957,1.84957,0,1,0,.05232-3.69877c-.01748-.00041-.03485-.00041-.05232,0H85.20467a1.84957,1.84957,0,0,0-.05232,3.69877Z"/>
    <path d="M7.47868,55.54785c.01737.00041.03485.00041.05222,0h7.33977a1.84957,1.84957,0,1,0,.05222-3.69877c-.01737-.00041-.03485-.00041-.05222,0H7.5309a1.84957,1.84957,0,0,0-.05222,3.69877Z"/>
    <path d="M92.48657,64.80289V64.802a1.84952,1.84952,0,0,0-.98246.34044S90.24566,66.003,88.6145,66.869a13.81284,13.81284,0,0,1-4.58739,1.62541c-.86795.00092-1.867-.58786-3.20024-1.50258a13.71267,13.71267,0,0,0-3.05952-1.74433,28.01337,28.01337,0,0,0-13.1225-23.99391,27.54536,27.54536,0,0,0-14.17372-4.19v-.00226a27.56024,27.56024,0,0,0-14.30375,3.74215A27.99974,27.99974,0,0,0,22.31406,65.24807a13.739,13.739,0,0,0-3.0584,1.74372,6.55664,6.55664,0,0,1-3.20743,1.50258,13.79487,13.79487,0,0,1-4.58739-1.611C9.82865,66.0228,8.564,65.16409,8.564,65.16409A1.8496,1.8496,0,1,0,6.48348,68.213,35.755,35.755,0,0,0,9.73429,70.156a13.97256,13.97256,0,0,0,6.31394,2.03719,9.18822,9.18822,0,0,0,5.29519-2.15282A6.5572,6.5572,0,0,1,24.551,68.53774c.86867,0,1.86686.58827,3.20034,1.50258a9.18828,9.18828,0,0,0,5.29519,2.15282,9.18857,9.18857,0,0,0,5.2953-2.15282c1.33348-.91473,2.33167-1.50258,3.20034-1.50258s1.86686.58827,3.20025,1.50258a9.18854,9.18854,0,0,0,5.29529,2.15282A9.18883,9.18883,0,0,0,55.333,70.04032c1.33339-.91473,2.33168-1.50258,3.20025-1.50258a6.56036,6.56036,0,0,1,3.20754,1.50258,9.16545,9.16545,0,0,0,5.288,2.15282,9.1886,9.1886,0,0,0,5.2953-2.15282,6.5572,6.5572,0,0,1,3.20754-1.50258c.86826,0,1.86675.58785,3.20024,1.50258a9.17522,9.17522,0,0,0,5.29529,2.15282,13.95424,13.95424,0,0,0,6.32113-2.05168,36.3771,36.3771,0,0,0,3.25082-1.95053,1.84948,1.84948,0,0,0-1.11249-3.388Z"/>
    <path d="M92.48657,74.04972v-.00093a1.85053,1.85053,0,0,0-.98246.34044s-1.25845.86055-2.88961,1.72655a13.813,13.813,0,0,1-4.58739,1.62551c-.86795.00082-1.867-.588-3.20024-1.50268a9.18394,9.18394,0,0,0-5.29529-2.15323,9.18912,9.18912,0,0,0-5.2953,2.15323,6.55679,6.55679,0,0,1-3.20754,1.50268c-.86857,0-1.86686-.588-3.20024-1.50268a9.18881,9.18881,0,0,0-5.29529-2.15323,9.18912,9.18912,0,0,0-5.2953,2.15323c-1.33338.91473-2.33167,1.50268-3.20024,1.50268s-1.86686-.588-3.20024-1.50268a9.18912,9.18912,0,0,0-5.2953-2.15323,9.18881,9.18881,0,0,0-5.29529,2.15323c-1.33349.91473-2.33167,1.50268-3.20035,1.50268a6.55694,6.55694,0,0,1-3.20743-1.50268,9.16635,9.16635,0,0,0-5.2881-2.15323,9.18912,9.18912,0,0,0-5.2953,2.15323,6.55691,6.55691,0,0,1-3.20743,1.50268,13.79924,13.79924,0,0,1-4.58739-1.611C9.82865,75.26972,8.564,74.41092,8.564,74.41092A1.84964,1.84964,0,1,0,6.48348,77.46a35.74171,35.74171,0,0,0,3.25081,1.94282A13.97134,13.97134,0,0,0,16.04823,81.44a9.18817,9.18817,0,0,0,5.29519-2.15272A6.55669,6.55669,0,0,1,24.551,77.78457c.86867,0,1.86686.58836,3.20034,1.50267A9.18822,9.18822,0,0,0,33.04649,81.44a9.18851,9.18851,0,0,0,5.2953-2.15272c1.33348-.91482,2.33167-1.50267,3.20034-1.50267s1.86686.58836,3.20025,1.50267A9.18848,9.18848,0,0,0,50.03767,81.44,9.18877,9.18877,0,0,0,55.333,79.28724c1.33339-.91482,2.33168-1.50267,3.20025-1.50267a6.56068,6.56068,0,0,1,3.20754,1.50267,9.16539,9.16539,0,0,0,5.288,2.15272,9.18854,9.18854,0,0,0,5.2953-2.15272,6.55669,6.55669,0,0,1,3.20754-1.50267c.86826,0,1.86675.58785,3.20024,1.50267A9.17569,9.17569,0,0,0,84.02711,81.44a13.95413,13.95413,0,0,0,6.32113-2.05157,36.408,36.408,0,0,0,3.25082-1.95053,1.84953,1.84953,0,0,0-1.11249-3.38814Z"/>
  </g>
</svg>
