<svg xmlns="http://www.w3.org/2000/svg" width="100" height="100" viewBox="0 0 100 100">
  <g>
    <path d="M56.4559,73.022H43.5441a1.66523,1.66523,0,0,0-1.70533,1.70533,1.73763,1.73763,0,0,0,1.70533,1.94895H56.4559a1.92152,1.92152,0,0,0,1.949-1.94895A1.88276,1.88276,0,0,0,56.4559,73.022Z" stroke="#000" stroke-width="0.43397"/>
    <path d="M46.71115,83.49758A3.41587,3.41587,0,0,0,50.12181,86.421a3.17921,3.17921,0,0,0,3.167-2.92342,4.26913,4.26913,0,0,0,4.14152-4.14152H42.81325A4.05953,4.05953,0,0,0,46.71115,83.49758Z" stroke="#000" stroke-width="0.43397"/>
    <path d="M50.12181,24.0546A2.44127,2.44127,0,0,0,52.558,21.61841V16.01518A2.61986,2.61986,0,0,0,50.12181,13.579a2.44127,2.44127,0,0,0-2.43619,2.43618v5.60323A2.30165,2.30165,0,0,0,50.12181,24.0546Z" stroke="#000" stroke-width="0.43397"/>
    <path d="M34.28659,27.70888a3.00745,3.00745,0,0,0,1.949.97448,1.86086,1.86086,0,0,0,1.21809-.48724,2.43757,2.43757,0,0,0,.73086-3.41066L34.77383,20.1567a2.43619,2.43619,0,1,0-3.8979,2.92343Z" stroke="#000" stroke-width="0.43397"/>
    <path d="M65.957,63.0336a2.61985,2.61985,0,0,0-3.41066-.48723,2.18517,2.18517,0,0,0-.48724,3.41066l3.167,4.38514a2.2157,2.2157,0,0,0,1.949.97447,1.79,1.79,0,0,0,1.46172-.48724,1.96563,1.96563,0,0,0,.48723-3.167Z" stroke="#000" stroke-width="0.43397"/>
    <path d="M28.19612,35.7483,22.83651,34.043a2.26909,2.26909,0,0,0-2.92343,1.46171,2.53429,2.53429,0,0,0,1.46172,3.167l5.35961,1.70533h.73085a2.3449,2.3449,0,0,0,2.43619-1.70533A2.41512,2.41512,0,0,0,28.19612,35.7483Z" stroke="#000" stroke-width="0.43397"/>
    <path d="M78.6252,52.07076l-5.35961-1.70533a2.18278,2.18278,0,0,0-2.92342,1.46171,2.53427,2.53427,0,0,0,1.46171,3.167l5.35961,1.70534h.73086a2.08525,2.08525,0,0,0,2.19257-1.70534A2.26909,2.26909,0,0,0,78.6252,52.07076Z" stroke="#000" stroke-width="0.43397"/>
    <path d="M26.73441,50.36543,21.3748,52.07076a2.26909,2.26909,0,0,0-1.46172,2.92342,2.08525,2.08525,0,0,0,2.19257,1.70534h.73086l5.35961-1.70534a2.67821,2.67821,0,0,0,1.70533-3.167A2.43758,2.43758,0,0,0,26.73441,50.36543Z" stroke="#000" stroke-width="0.43397"/>
    <path d="M72.53474,40.37706h.73085l5.35961-1.70533a2.53429,2.53429,0,0,0,1.46172-3.167A2.18278,2.18278,0,0,0,77.16349,34.043L71.80388,35.7483a2.26909,2.26909,0,0,0-1.46171,2.92343A2.08525,2.08525,0,0,0,72.53474,40.37706Z" stroke="#000" stroke-width="0.43397"/>
    <path d="M34.28659,63.0336l-3.41066,4.62876a2.30984,2.30984,0,0,0,.48723,3.167,1.79,1.79,0,0,0,1.46172.48724,2.2157,2.2157,0,0,0,1.94895-.97447L38.18449,65.957a2.39609,2.39609,0,0,0-.73086-3.41066A2.30985,2.30985,0,0,0,34.28659,63.0336Z" stroke="#000" stroke-width="0.43397"/>
    <path d="M65.22617,20.1567l-3.167,4.62876a2.2076,2.2076,0,0,0,.48724,3.41066,3.46253,3.46253,0,0,0,1.46171.48724,3.00745,3.00745,0,0,0,1.94895-.97448l3.167-4.62875a2.18519,2.18519,0,0,0-.48723-3.41067A2.61988,2.61988,0,0,0,65.22617,20.1567Z" stroke="#000" stroke-width="0.43397"/>
    <path d="M67.41874,45.493a17.41917,17.41917,0,1,0-34.83748,0,18.3345,18.3345,0,0,0,3.65428,10.71923,50.584,50.584,0,0,1,5.84685,8.283v5.84685H57.91761V64.49532a100.9827,100.9827,0,0,1,5.84685-8.283A16.80561,16.80561,0,0,0,67.41874,45.493Z" stroke="#000" stroke-width="0.43397"/>
  </g>
</svg>
