<svg xmlns="http://www.w3.org/2000/svg" width="100" height="100" viewBox="0 0 100 100">
  <g>
    <path d="M58.43986,58.47138H41.34793A22.93419,22.93419,0,0,0,18.2724,81.45764V92.52553H81.7276V81.45764A23.25505,23.25505,0,0,0,58.43986,58.47138M49.67918,71.88014,44.125,64.2192H55.4489Z" fill-rule="evenodd"/>
    <path d="M29.314,31.22533l-.21387,6.78522H31.665c0,.42442-.21387.84884-.21387,1.2732a18.38634,18.38634,0,0,0,36.76558,0,2.67256,2.67256,0,0,0-.21389-1.2732h2.56489l-.21388-6.78522L72.491,27.40748,78.904,15.74341,49.83311,7.47447,20.76386,15.74341l6.41136,11.45186ZM49.83311,18.92469a2.86863,2.86863,0,0,1,2.78044,2.96906,2.77885,2.77885,0,0,1-5.55753,0,2.867,2.867,0,0,1,2.77709-2.96906M37.43645,38.01055h24.795v1.2732a12.39789,12.39789,0,0,1-24.795,0Z" fill-rule="evenodd"/>
  </g>
</svg>
