<svg xmlns="http://www.w3.org/2000/svg" width="13.91867" height="19.67029" viewBox="0 0 13.91867 19.67029">
  <path d="M5.83813.41308V7.62025A1.29037,1.29037,0,0,1,4.591,8.91062H3.761l.81435,9.31583a1.55,1.55,0,0,1-1.64837,1.432h0a1.55,1.55,0,0,1-1.64836-1.432l.80648-9.31583H1.255A1.29037,1.29037,0,0,1,0,7.62025V.40914A.3934.3934,0,0,1,.39341.01574H.50749a.51142.51142,0,0,1,.51143.51142V5.071a.68846.68846,0,0,0,1.251.3934.78684.78684,0,0,0,.12589-.42881V.5311h0A.51142.51142,0,0,1,2.90726.01967h0A.51142.51142,0,0,1,3.41869.5311V5.03165a.78675.78675,0,0,0,.12589.42881.68846.68846,0,0,0,1.251-.3934V.52716L4.796.511A.51143.51143,0,0,1,5.3267.01967h.11409A.39341.39341,0,0,1,5.8342.41308Zm7.514,10.30721A1.55,1.55,0,0,0,13.718,9.70924V1.47133A1.40445,1.40445,0,0,0,12.38439,0C9.54007.31079,7.754,9.59908,11.24745,10.72422h0l-.63338,7.30553a1.64444,1.64444,0,0,0,1.64832,1.64054l.00791,0h0a1.64445,1.64445,0,0,0,1.64837-1.64049h0Z"/>
</svg>
