<svg xmlns="http://www.w3.org/2000/svg" width="20.54874" height="15.16196" viewBox="0 0 20.54874 15.16196">
  <path d="M20.54874,6.94165v7.19227a1.028,1.028,0,0,1-2.05609,0V11.04978H2.05609v3.08414a1.028,1.028,0,0,1-2.05609,0V1.028a1.028,1.028,0,0,1,2.05609,0v7.9697H18.4967V6.94165a1.026,1.026,0,1,1,2.052,0ZM3.08413,5.91361A2.05609,2.05609,0,1,0,5.14022,3.85752,2.05609,2.05609,0,0,0,3.08413,5.91361Zm5.549,2.05609h8.3984a.4081.4081,0,0,0,.41283-.43712,4.11175,4.11175,0,0,0-4.08789-3.67506H8.63314a.412.412,0,0,0-.41283.41284v3.2865A.41457.41457,0,0,0,8.63314,7.9697Z"/>
</svg>
