<svg xmlns="http://www.w3.org/2000/svg" width="16" height="22.10721" viewBox="0 0 16 22.10721">
  <path d="M15.27386,5.10564H13.19562V3.70345a3.68075,3.68075,0,0,0-7.33647-.4507A3.68075,3.68075,0,0,0,2.82942,6.85838V8.26057H.75117A.75117.75117,0,0,0,0,9.01175V21.356a.75118.75118,0,0,0,.75117.75118h11.493a.75119.75119,0,0,0,.75118-.75118V18.95228h2.25352A.75117.75117,0,0,0,16,18.2011V5.85682A.75117.75117,0,0,0,15.27386,5.10564ZM8.68858,8.26057H4.33177V6.85838a2.1784,2.1784,0,0,1,4.3568,0Zm-1.302-4.98278a2.1784,2.1784,0,0,1,4.33177.40062V5.0806H9.74022A3.70577,3.70577,0,0,0,7.38654,3.27779Zm7.13615,14.17214H13.02034V9.01175a.75117.75117,0,0,0-.75117-.75118H10.19092V6.85838a.85178.85178,0,0,0-.025-.25039h4.35681Z"/>
</svg>
