<svg xmlns="http://www.w3.org/2000/svg" width="21.36144" height="18.50253" viewBox="0 0 21.36144 18.50253">
  <path d="M21.1123,14.15271c.97649.08877-1.154,2.92947-2.30807,3.4621a3.38093,3.38093,0,0,0,1.68666.53263.17878.17878,0,1,1,0,.35509,2.63448,2.63448,0,0,1-2.39684-1.24281c-.88771,1.59789-4.0835,1.59789-4.97122,0-.88772,1.59789-3.99473,1.59789-4.88245,0-.88772,1.59789-4.08351,1.59789-4.88245,0A2.87936,2.87936,0,0,1,.87232,18.50253a.17878.17878,0,1,1,0-.35509A3.38093,3.38093,0,0,0,2.559,17.61481c-1.77543-.71018-3.01824-3.4621-2.39684-3.4621Zm-10.83017-.71018V2.61237c0-1.33158-7.5456,11.62911-5.85894,11.00771C6.9088,12.99867,10.01582,13.79762,10.28213,13.44253ZM10.81476.12676V13.44253c.44386.53263,5.06-.53263,7.27929.17755C19.95826,14.15271,10.81476-1.55991,10.81476.12676Z"/>
</svg>
