<svg xmlns="http://www.w3.org/2000/svg" width="20" height="20" viewBox="0 0 20 20">
  <path d="M10,1a9,9,0,1,0,9,9A9,9,0,0,0,10,1Zm5.02911,8.763v.474a.8878.8878,0,0,1-.88037.8952q-.00741.00009-.01483,0H11.13215V14.134a.90469.90469,0,0,1-.8952.8952H9.763a.90467.90467,0,0,1-.89532-.8952V11.1322H5.866a.90458.90458,0,0,1-.89521-.8952V9.763A.90463.90463,0,0,1,5.866,8.86774H8.86769V5.866a.88783.88783,0,0,1,.88043-.8952c.00494-.00007.00989-.00007.01489,0h.47388a.88785.88785,0,0,1,.89526.88037V8.8678h3.00177a.88784.88784,0,0,1,.8952.88043C15.02919,9.75317,15.02919,9.75806,15.02912,9.763Z"/>
</svg>
