<svg xmlns="http://www.w3.org/2000/svg" width="100" height="66.875" viewBox="0 0 100 66.875">
  <path d="M50.12549,40.10654h.02141a3.846,3.846,0,0,0,2.10229-.61716l.16356-.10507c.03562-.0232.07288-.04428.11029-.06928l1.9049-1.576L99.8951.21879A.53429.53429,0,0,0,99.46994,0H.52827A.51359.51359,0,0,0,.201.11912L47.77043,39.32729A3.72656,3.72656,0,0,0,50.12549,40.10654ZM0,5.3165v55.616L34.0768,33.40457ZM65.95882,33.59134,100,60.94673V5.50147Zm-10.823,8.92876a8.10859,8.10859,0,0,1-9.99395.00882L37.33709,36.092,0,66.249v.09592a.54062.54062,0,0,0,.53529.53006H99.47174a.53833.53833,0,0,0,.5281-.53186v-.08889L62.69493,36.28072Z"/>
</svg>
