<svg xmlns="http://www.w3.org/2000/svg" viewBox="0 0 25.146 34.277"><path d="M19.387 2.05C16.592.203 13.167-.432 9.894.292c-3.272.724-6.11 2.745-7.866 5.6-2.704 4.252-2.704 9.684 0 13.936l.087.09c.088.09.088.267.175.357l9.16 13.4c.205.303.524.512.884.58.36.066.733-.014 1.034-.223.157-.07.282-.2.35-.357l9.07-13.4c.11-.103.198-.224.263-.358l.088-.09c3.756-5.965 2.096-13.836-3.75-17.777zm-6.804 16.17C10.403 18.272 8.41 17 7.54 15c-.87-2-.444-4.326 1.08-5.886 1.523-1.56 3.84-2.042 5.858-1.22 2.02.823 3.34 2.786 3.34 4.966.025 2.922-2.313 5.316-5.235 5.36z"/></svg>