<svg xmlns="http://www.w3.org/2000/svg" width="100" height="100" viewBox="0 0 100 100">
  <path d="M21.41933,17.91124a7.01638,7.01638,0,0,0-7.028,7.028V55.86262a7.01637,7.01637,0,0,0,7.028,7.028H78.58067a7.01637,7.01637,0,0,0,7.028-7.028V24.93927a7.01638,7.01638,0,0,0-7.028-7.028Zm23.9246,10.2785a1.50771,1.50771,0,0,1,.90779.205l16.838,10.30778a2.12972,2.12972,0,0,1,0,3.39689l-16.838,10.30778a1.90848,1.90848,0,0,1-2.75265-1.49346,2.0194,2.0194,0,0,1,0-.205V30.09316A1.98206,1.98206,0,0,1,45.34393,28.18974Z"/>
  <path d="M10.72989,82.95849h3.25668l5.04969,12.87663,5.02631-12.87663h3.18261L20.305,99.83239H17.69539Zm19.56538,0h2.94485v16.755H30.29527Zm7.4235,0h6.2483c5.266,0,8.90274,3.61528,8.90274,8.32976V91.337c0,4.71448-3.63672,8.37654-8.90274,8.37654h-6.2483Zm2.94485,2.68174V97.03177h3.30345a5.45957,5.45957,0,0,0,5.81562-5.648V91.337a5.49741,5.49741,0,0,0-5.81562-5.69674Zm15.78249-2.68174H68.86863v2.633H59.391v4.35587h8.40187v2.633H59.391v4.50009h9.59852v2.633H56.44611Zm15.305,8.42526V91.337a8.76035,8.76035,0,0,1,17.519-.04872V91.337a8.76036,8.76036,0,0,1-17.519.04678Zm14.43188,0V91.337a5.73994,5.73994,0,0,0-5.69674-5.95985,5.66008,5.66008,0,0,0-5.648,5.91113V91.337A5.71945,5.71945,0,0,0,80.535,97.27149,5.64026,5.64026,0,0,0,86.183,91.38375Z"/>
</svg>
