<svg xmlns="http://www.w3.org/2000/svg" width="100" height="100" viewBox="0 0 100 100">
  <path d="M69.47833,8.51241H46.10463a3.91142,3.91142,0,0,1,.29265,1.45925V23.80224A4.36351,4.36351,0,0,1,42.01551,28.184H28.08781a3.89214,3.89214,0,0,1-1.46059-.29265V62.9512a3.90742,3.90742,0,0,0,3.895,3.8963H69.47833a3.90741,3.90741,0,0,0,3.895-3.8963V12.40737a3.90627,3.90627,0,0,0-3.895-3.895M62.56377,54.576h-25.127a1.46059,1.46059,0,0,1,0-2.92118H62.46661a1.4977,1.4977,0,0,1,1.46059,1.46059A1.41516,1.41516,0,0,1,62.56377,54.576m0-12.36861h-25.127a1.46059,1.46059,0,0,1,0-2.92118H62.46661a1.49866,1.49866,0,0,1,1.46059,1.46059,1.41516,1.41516,0,0,1-1.36343,1.46059M26.72439,24.38617a1.48578,1.48578,0,0,1,.29265-1.559L40.84623,8.9993a1.34449,1.34449,0,0,1,1.55767-.29269,1.37631,1.37631,0,0,1,.87662,1.36351v13.8292a1.49866,1.49866,0,0,1-1.46059,1.46059H28.08781a2.01442,2.01442,0,0,1-1.36342-.97374"/>
  <g>
    <path d="M23.79939,82.672H36.69511v2.77345H26.84292V90.172h8.73959v2.77345H26.84292V100H23.79939Z"/>
    <path d="M40.21836,82.672h3.04756V100H40.21836Z"/>
    <path d="M47.89774,82.672h3.04354V97.22655h9.11045V100h-12.154Z"/>
    <path d="M63.2283,82.672H76.07565v2.72306H66.27183v4.50483H74.963V92.623H66.27183v4.654h9.92878V100H63.2283Z"/>
  </g>
</svg>
