<svg xmlns="http://www.w3.org/2000/svg" width="100" height="100" viewBox="0 0 100 100">
  <path d="M50,6.5A33.5,33.5,0,1,0,83.5,40,33.5,33.5,0,0,0,50,6.5Zm4.41859,43.67643c-.134.14963-.27394.29852-.41834.44369L49.0371,55.5825A10.34051,10.34051,0,0,1,34.41264,40.95958l4.96315-4.9632c.1444-.1444.29184-.28434.44219-.41833a10.34782,10.34782,0,0,1,16.20117,3.27176l.12581.26354-.20619.207a3.73256,3.73256,0,0,1-3.72668.92982l-.14962-.04616-.08115-.13327a6.20107,6.20107,0,0,0-5.29366-2.96584,6.16306,6.16306,0,0,0-4.387,1.81643l-4.96315,4.96315a6.20409,6.20409,0,0,0,8.77389,8.77393l3.6418-3.64253.23078.06179a13.00358,13.00358,0,0,0,4.10035.41093l.999-.061Zm11.16209-11.139-4.96242,4.96315c-.14513.14517-.29257.28366-.44365.41839a10.31244,10.31244,0,0,1-6.86745,2.61075h-.00072a10.35182,10.35182,0,0,1-9.33227-5.88257l-.12581-.26353.20619-.20619a3.72665,3.72665,0,0,1,3.72668-.92982l.14962.04616.08188.134a6.22613,6.22613,0,0,0,2.05615,2.05615,6.20813,6.20813,0,0,0,7.62452-.906l4.96238-4.96315a6.20411,6.20411,0,0,0-8.77466-8.77321l-3.641,3.64181-.23078-.0618a12.9508,12.9508,0,0,0-4.09885-.41093l-.99906.061.66478-.74816q.20215-.22668.41839-.44369L50.957,24.41668A10.33947,10.33947,0,1,1,65.58068,39.03742Z"/>
  <g>
    <path d="M20.9431,82.672h3.04449V97.22714h9.10992V100H20.9431Z"/>
    <path d="M36.445,82.672h3.04449V100H36.445Z"/>
    <path d="M44.12142,82.672H46.943l9.28263,11.98169V82.672H59.2214V100H56.6715L47.11723,87.67288V100H44.12142Z"/>
    <path d="M63.68529,82.672h3.04449v8.71424L74.973,82.672h3.762L71.5077,90.12386,79.0569,100H75.3451l-5.91626-7.79729-2.69906,2.77286V100H63.68529Z"/>
  </g>
</svg>
