<svg xmlns="http://www.w3.org/2000/svg" width="100" height="100" viewBox="0 0 100 100">
  <path d="M86.50785,45.99807a3.73209,3.73209,0,0,0-1.08208-1.85,14.94841,14.94841,0,0,0-9.641-2.27936,79.67722,79.67722,0,0,0-11.60274.85519,28.99338,28.99338,0,0,1-5.37552-3.721,39.23163,39.23163,0,0,1-9.71783-15.0724c.13963-.55152.25482-1.02973.3735-1.5219A97.9395,97.9395,0,0,0,51.17253,4.74619a5.24118,5.24118,0,0,0-.30368-1.25661l-.199-.51661A4.18645,4.18645,0,0,0,46.85815.05134L45.70625.01643H45.6888A4.30752,4.30752,0,0,0,41.29064,2.774c-1.40322,5.194.04887,12.97106,2.68078,23.02748l-.68066,1.64058c-1.87795,4.60759-4.24108,9.23263-6.318,13.31314l-.27226.52358c-2.19908,4.29344-4.18872,7.9446-6.00383,11.03029l-1.85.98435c-.13962.06981-3.337,1.76624-4.084,2.20955-6.37034,3.80475-10.57651,8.11215-11.27812,11.519a2.84247,2.84247,0,0,0,1.07511,3.14153l1.80114.90756a5.509,5.509,0,0,0,2.45389.58642c4.52382,0,9.77368-5.63732,17.01318-18.2663a168.89381,168.89381,0,0,1,26.20741-6.22374A45.20713,45.20713,0,0,0,81.12884,53.2271a9.02222,9.02222,0,0,0,2.24794-.24434,3.94315,3.94315,0,0,0,2.234-1.5219,8.12884,8.12884,0,0,0,.88661-5.46279Zm-68.667,22.23511a31.3774,31.3774,0,0,1,8.922-10.68122c.30369-.24434,1.05416-.94247,1.73134-1.60568C23.44322,64.00956,20.06083,67.21044,17.84081,68.23318Zm28.602-65.878c1.45209,0,2.28285,3.65815,2.35266,7.09638a14.62706,14.62706,0,0,1-1.73134,7.63743A37.05973,37.05973,0,0,1,45.8354,7.55961s-.05934-5.201.60736-5.201Zm-8.538,46.94156q1.52889-2.72266,3.14852-5.75251a107.95288,107.95288,0,0,0,5.51515-12.04256,40.04891,40.04891,0,0,0,9.11046,11.30954c.46076.37.94246.75746,1.43114,1.14142a115.65084,115.65084,0,0,0-19.19829,5.3476Zm46.1108-.4084a6.77986,6.77986,0,0,1-2.53766.43283,29.8096,29.8096,0,0,1-10.52415-3.18691c1.76624-.12567,3.39286-.199,4.84145-.199a18.49454,18.49454,0,0,1,6.04572.65623c2.597.66321,2.63191,2.01059,2.17464,2.29332ZM32.50481,82.72265H25.69814v17.261H28.735v-5.55h3.42079c3.80475,0,6.91138-2.01757,6.91138-5.88864v-.05236a5.80593,5.80593,0,0,0-6.56232-5.77Zm3.47663,5.89213c0,1.80115-1.43114,3.08569-3.72795,3.08569H28.728V85.4872h3.52551c2.26889,0,3.72446,1.05765,3.72446,3.0822v.04538Zm12.63248-5.89213H42.17725v17.261h6.43667a8.63565,8.63565,0,0,0,9.17329-8.62876v-.04538a8.60193,8.60193,0,0,0-9.17329-8.58687Zm5.99335,8.68112a5.62729,5.62729,0,0,1-5.99684,5.81882H45.21059V85.4872h3.40333a5.66534,5.66534,0,0,1,5.99336,5.8642Zm6.859,8.57989h3.03682V92.95708h8.70206V90.19951H64.50312V85.4872H74.3117V82.72265H61.46629Z"/>
</svg>
