<svg xmlns="http://www.w3.org/2000/svg" width="100" height="100" viewBox="0 0 100 100">
  <path d="M95.0025,21.38a36.33362,36.33362,0,0,1-10.605,2.98,18.88614,18.88614,0,0,0,8.12-10.475,36.46292,36.46292,0,0,1-11.725,4.595,18.24021,18.24021,0,0,0-13.48-5.98,18.7047,18.7047,0,0,0-18.465,18.935,19.778,19.778,0,0,0,.475,4.315,51.99764,51.99764,0,0,1-38.055-19.785,19.27551,19.27551,0,0,0,5.715,25.28,18.02451,18.02451,0,0,1-8.365-2.37v.24a18.8358,18.8358,0,0,0,14.81,18.565,18.04477,18.04477,0,0,1-8.34.325,18.55537,18.55537,0,0,0,17.25,13.145,36.45692,36.45692,0,0,1-22.93,8.105,37.77448,37.77448,0,0,1-4.41-.26,51.37618,51.37618,0,0,0,28.31,8.505c33.965,0,52.535-28.85,52.535-53.87,0-.82-.02-1.64-.05-2.45A38.12359,38.12359,0,0,0,95.0025,21.38Z"/>
</svg>
