<svg xmlns="http://www.w3.org/2000/svg" width="100" height="100" viewBox="0 0 100 100">
  <path d="M82.395,7.5H17.605A10.09435,10.09435,0,0,0,7.5,17.58V82.42A10.09435,10.09435,0,0,0,17.605,92.5h64.79A10.09435,10.09435,0,0,0,92.5,82.42V17.58A10.09435,10.09435,0,0,0,82.395,7.5ZM66.545,19.56a2.37821,2.37821,0,0,1,2.38-2.375H80.415A2.374,2.374,0,0,1,82.79,19.56V31.025a2.36971,2.36971,0,0,1-2.375,2.37H68.925a2.374,2.374,0,0,1-2.38-2.37ZM50.1,33.79A16.30754,16.30754,0,1,1,33.755,50.1,16.33066,16.33066,0,0,1,50.1,33.79ZM82.99,80.245A2.374,2.374,0,0,1,80.61,82.615H19.585a2.37288,2.37288,0,0,1-2.375-2.37V43.28h7.95a25.855,25.855,0,1,0,49.88,0H82.99Z"/>
</svg>
