<svg xmlns="http://www.w3.org/2000/svg" width="100" height="100" viewBox="0 0 100 100">
  <path d="M50.005,2.5A47.5024,47.5024,0,0,0,30.935,93.51,41.70768,41.70768,0,0,1,31.76,82.6c.915-3.855,6.11-25.88,6.11-25.88A18.28248,18.28248,0,0,1,36.355,49.205c0-7.04,4.075-12.3,9.16-12.3,4.32,0,6.41,3.245,6.41,7.135,0,4.34-2.77,10.84-4.19494,16.855-1.195,5.04,2.52494,9.15,7.495,9.15,9,0,15.06-11.56,15.06-25.255,0-10.41-7.01-18.205-19.765-18.205-14.41,0-23.385,10.745-23.385,22.75a13.72117,13.72117,0,0,0,3.13,9.315,2.30243,2.30243,0,0,1,.685,2.645c-.23.88-.755,2.98-.965,3.815A1.64333,1.64333,0,0,1,27.6,66.3c-6.63-2.71-9.725-9.98-9.725-18.15,0-13.49,11.38-29.67,33.95005-29.67,18.135,0,30.07,13.125,30.07,27.21,0,18.63-10.355,32.555-25.63,32.555-5.12505,0-9.95-2.775-11.605-5.92,0,0-2.755,10.94-3.34,13.055a39.76658,39.76658,0,0,1-4.78,10.175A47.50084,47.50084,0,1,0,50.005,2.5Z"/>
</svg>
