<svg xmlns="http://www.w3.org/2000/svg" width="100" height="100" viewBox="0 0 100 100">
  <path d="M84.08,10H15.905A5.83636,5.83636,0,0,0,10,15.765v68.46A5.84152,5.84152,0,0,0,15.905,90H84.08A5.85457,5.85457,0,0,0,90,84.225V15.765A5.84942,5.84942,0,0,0,84.08,10ZM33.725,78.17H21.865V39.99h11.86ZM27.8,34.775a6.88,6.88,0,1,1,6.875-6.885A6.88177,6.88177,0,0,1,27.8,34.775ZM78.17,78.17H66.31V59.6c0-4.425-.085-10.12-6.16-10.12-6.18,0-7.125,4.825-7.125,9.805V78.17H41.17V39.99H52.55v5.22h.155a12.47626,12.47626,0,0,1,11.23-6.17c12.015,0,14.235,7.91,14.235,18.19Z"/>
</svg>
