<svg xmlns="http://www.w3.org/2000/svg" width="100" height="100" viewBox="0 0 100 100">
  <path d="M50.67736,46.87271A15.82546,15.82546,0,0,0,37.43852,57.60844,15.266,15.266,0,0,0,25.869,67.30376,18.56148,18.56148,0,1,1,52.65847,44.26811a24.49641,24.49641,0,0,0-1.98111,2.6046M35.45921,29.04829a2.35889,2.35889,0,0,0,2.398-2.398V18.83282a2.398,2.398,0,1,0-4.796,0v7.81752a2.42519,2.42519,0,0,0,2.398,2.398M16.27958,35.61515a2.22287,2.22287,0,0,0,1.66754.73045,2.07706,2.07706,0,0,0,1.66754-.73045,2.45629,2.45629,0,0,0,0-3.4402L14.09,26.65034a2.432,2.432,0,0,0-3.43843,3.4402ZM13.04871,51.45973a2.36,2.36,0,0,0-2.398-2.398H2.8332a2.398,2.398,0,1,0,0,4.79595h7.81752a2.36107,2.36107,0,0,0,2.398-2.398m3.23087,15.84349-5.52643,5.52466a2.4563,2.4563,0,0,0,0,3.44021,2.22738,2.22738,0,0,0,1.66934.72866A2.07332,2.07332,0,0,0,14.09,76.26809l5.52463-5.52461a2.45636,2.45636,0,0,0,0-3.44026,2.32972,2.32972,0,0,0-3.33508,0M53.07483,36.34506a2.07524,2.07524,0,0,0,1.66932-.7304L60.267,30.09a2.432,2.432,0,0,0-3.4402-3.43841L51.30394,32.1762a2.44977,2.44977,0,0,0,1.77089,4.16886M87.37,54.58617A18.11649,18.11649,0,0,0,53.49169,51.668c-.31177,0-.73044-.10336-1.04222-.10336A11.04068,11.04068,0,0,0,41.4002,62.19529c-.31356,0-.72867-.10335-1.04222-.10335a10.73663,10.73663,0,0,0,0,21.47325H84.972a14.58836,14.58836,0,0,0,2.398-28.979"/>
</svg>
