<svg xmlns="http://www.w3.org/2000/svg" width="100" height="100" viewBox="0 0 100 100">
  <path d="M41.02468,72.2285v3.58956a3.58956,3.58956,0,0,1-7.17911,0V72.2285a3.58956,3.58956,0,0,1,7.17911,0ZM30.256,79.40761a3.59086,3.59086,0,0,0-3.58955,3.58956v3.58955a3.58955,3.58955,0,0,0,7.1791,0V82.99717A3.59086,3.59086,0,0,0,30.256,79.40761ZM55.38289,68.63895a3.59086,3.59086,0,0,0-3.58955,3.58955v3.58956a3.58956,3.58956,0,0,0,7.17911,0V72.2285A3.59086,3.59086,0,0,0,55.38289,68.63895Zm-7.1791,10.76866a3.59087,3.59087,0,0,0-3.58956,3.58956v3.58955a3.58956,3.58956,0,0,0,7.17911,0V82.99717A3.59086,3.59086,0,0,0,48.20379,79.40761ZM73.33066,68.63895a3.59086,3.59086,0,0,0-3.58955,3.58955v3.58956a3.58956,3.58956,0,0,0,7.17911,0V72.2285A3.59086,3.59086,0,0,0,73.33066,68.63895Zm-7.1791,10.76866A3.59087,3.59087,0,0,0,62.562,82.99717v3.58955a3.58956,3.58956,0,0,0,7.17911,0V82.99717A3.59086,3.59086,0,0,0,66.15156,79.40761ZM81.03079,30.87722c0-.11455.03365-.22242.03365-.34387A20.653,20.653,0,0,0,41.944,21.2302,17.08473,17.08473,0,0,0,18.95584,37.22084h-.02028v.10786a13.80642,13.80642,0,1,0,0,27.61283v.10787H77.61284a17.25691,17.25691,0,0,0,3.41795-34.17218Z"/>
</svg>
