<svg xmlns="http://www.w3.org/2000/svg" width="100" height="100" viewBox="0 0 100 100">
  <path d="M95.73182,67.14943a14.29012,14.29012,0,0,1-14.29119,14.2912H32.85057v-.08932a11.433,11.433,0,1,1,0-22.86591v-.08932h.01679A14.14769,14.14769,0,0,1,51.90359,45.15439a17.10256,17.10256,0,0,1,32.39528,7.70385c0,.10057-.02787.18989-.02787.28475A14.29114,14.29114,0,0,1,95.73182,67.14943ZM27.84865,53.48348l.1731-.72581a20.16152,20.16152,0,0,1,21.25261-14.0679,22.61373,22.61373,0,0,1,16.85915-8.58025A17.0354,17.0354,0,0,0,34.75415,28.005,14.14768,14.14768,0,0,0,15.71793,41.24664h-.0168V41.336a11.433,11.433,0,0,0,0,22.86591v.08932h.97145A17.20636,17.20636,0,0,1,27.13427,53.75144Z"/>
</svg>
