<svg xmlns="http://www.w3.org/2000/svg" width="100" height="100" viewBox="0 0 100 100">
  <path d="M50.323,27.8701A22.59076,22.59076,0,1,1,27.73226,50.46088,22.59016,22.59016,0,0,1,50.323,27.8701m1.99454-11.29482V2.455a1.99475,1.99475,0,0,0-3.9895,0V16.57528a1.99475,1.99475,0,0,0,3.9895,0Zm0,81.89021V84.34613a1.99475,1.99475,0,0,0-3.9895,0V98.46549a1.99475,1.99475,0,0,0,3.9895,0Zm48.00619-48.00525A1.99434,1.99434,0,0,0,98.329,48.466H84.20916a1.99428,1.99428,0,1,0,0,3.98856H98.329A1.99434,1.99434,0,0,0,100.32373,50.46024Zm-81.89068,0A1.99433,1.99433,0,0,0,16.43831,48.466H2.31848a1.99428,1.99428,0,1,0,0,3.98856H16.43831A1.99433,1.99433,0,0,0,18.43305,50.46024ZM76.52035,27.083l9.98453-9.98266A1.99426,1.99426,0,1,0,83.68457,14.28L73.7,24.26269A1.99426,1.99426,0,1,0,76.52035,27.083ZM16.962,86.64232l9.98265-9.98265a1.99459,1.99459,0,0,0-2.82125-2.82031L14.14071,83.822A1.99459,1.99459,0,0,0,16.962,86.64232Zm69.54338-.00094a1.99406,1.99406,0,0,0-.00046-2.8203l-9.98453-9.98266A1.99426,1.99426,0,1,0,73.7,76.65873l9.98453,9.98265a1.99476,1.99476,0,0,0,2.82077,0ZM26.94461,27.08206a1.99449,1.99449,0,0,0,0-2.82031L16.962,14.2791a1.99459,1.99459,0,0,0-2.82125,2.8203l9.98265,9.98266a1.99536,1.99536,0,0,0,2.82125,0Z"/>
</svg>
