<svg xmlns="http://www.w3.org/2000/svg" width="100" height="77.56382" viewBox="0 0 100 77.56382">
  <path d="M11.78668,33.895a2.44785,2.44785,0,0,0-2.44449-2.44242H2.41959a2.44252,2.44252,0,0,0,0,4.88483h6.9226a2.44075,2.44075,0,0,0,2.44241-2.44034ZM33.87217,11.80743A2.44252,2.44252,0,0,0,36.31459,9.365V2.44242a2.44138,2.44138,0,1,0-4.88275,0V9.365a2.44429,2.44429,0,0,0,2.44656,2.44242ZM14.79975,18.27558a2.44246,2.44246,0,0,0,3.45508-3.453L13.36377,9.9253a2.44463,2.44463,0,0,0-3.45715,3.45714l4.89313,4.89106Zm0,31.23884L9.90247,54.41171a2.44312,2.44312,0,0,0,3.45715,3.453l4.89728-4.89313a2.44391,2.44391,0,0,0-3.45507-3.45715ZM51.21809,18.99564a2.43729,2.43729,0,0,0,1.72651-.71591l4.89728-4.89313A2.44311,2.44311,0,0,0,54.3868,9.93152l-4.89728,4.89313a2.44248,2.44248,0,0,0,1.7265,4.171Zm-23.536,26.933A13.62993,13.62993,0,1,1,43.52356,24.16269a26.88629,26.88629,0,0,1,4.27474-2.56692A18.51585,18.51585,0,1,0,24.13571,49.54348a20.94418,20.94418,0,0,1,3.54846-3.61071ZM82.6935,42.955a17.508,17.508,0,0,0-2.03361.12036,21.37631,21.37631,0,0,0-42.55032,2.93214q0,.62255.03735,1.24508a15.268,15.268,0,0,0,2.60842,30.31127H82.6935a17.30339,17.30339,0,1,0,0-34.60677Zm0,29.72194H40.75534a10.383,10.383,0,0,1-.06225-20.76572l3.13343.06226-.54783-2.94667a16.48737,16.48737,0,1,1,32.69558-3.08363v3.37l3.14588-.94417a12.41587,12.41587,0,1,1,3.57543,24.30587Z"/>
</svg>
