<svg xmlns="http://www.w3.org/2000/svg" width="16" height="16" viewBox="0 0 16 16">
  <path d="M14.68657,10.89167l-6.7024,4.8768H7.784L4.25154,13.19876a.11446.11446,0,0,1,.03752-.2c1.06914-.30011,2.157-.694,3.22616-1.0816,2.676-.97536,5.2394-1.90069,7.14634-1.22544a.11558.11558,0,0,1,.025.2Zm.66267-3.28243a.15971.15971,0,0,0-.075-.09378c-1.95071-1.18168-4.78924-.15632-7.77782.92533a20.02063,20.02063,0,0,1-6.40226,1.58808A9.348,9.348,0,0,1,.125,9.94759a.11322.11322,0,0,0-.125.095v.036a.10685.10685,0,0,0,.04376.069l2.4884,1.80691a.19659.19659,0,0,0,.1313.03125,29.0969,29.0969,0,0,0,4.38285-1.34423c3.1137-1.13166,6.321-2.29459,8.78442-.91909a.1104.1104,0,0,0,.16256-.13129ZM.73152,6.64639.14381,8.44079A.11614.11614,0,0,0,.218,8.58733h0l.01333.0035C2.2008,8.90346,4.65168,8.0219,7.0338,7.15908c2.61344-.9504,5.28941-1.9132,7.534-1.39426a.10919.10919,0,0,0,.1313-.14381c-.15005-.45641-.52519-1.60683-.63148-1.9507a.15329.15329,0,0,0-.13129-.11253c-1.80692-.28136-4.07023.55019-6.43361,1.4005A19.32469,19.32469,0,0,1,.88781,6.53385.156.156,0,0,0,.73152,6.64639ZM5.602,4.02044a7.62168,7.62168,0,0,0-3.79521-.4189.16416.16416,0,0,0-.125.11254c-.08128.25634-.31886.98786-.42515,1.30673a.11059.11059,0,0,0,.10629.14379A15.55581,15.55581,0,0,0,5.60821,4.183.08691.08691,0,0,0,5.602,4.02044ZM2.776.35039,2.23831,2.001a.10816.10816,0,0,0,.11254.1438A13.95407,13.95407,0,0,1,7.8466,3.35144a.07962.07962,0,0,0,.075,0,15.86022,15.86022,0,0,1,5.49573-1.2192.11507.11507,0,0,0,.11255-.1438c-.11879-.36888-.42516-1.31922-.5377-1.64434a.1692.1692,0,0,0-.16256-.11255H2.93856A.17487.17487,0,0,0,2.776.35039Z"/>
</svg>
